<svg width="38" height="37" viewBox="0 0 38 37" fill="none" xmlns="http://www.w3.org/2000/svg">
<rect x="0.503174" width="37" height="37" rx="5" fill="#BD89FF" fill-opacity="0.1"/>
<g clip-path="url(#clip0_658_5874)">
<path d="M19 15.3086C17.5462 15.3086 16.3633 16.4915 16.3633 17.9453C16.3633 19.3991 17.5462 20.582 19 20.582C20.4538 20.582 21.6367 19.3991 21.6367 17.9453C21.6367 16.4915 20.4538 15.3086 19 15.3086Z" fill="#BD89FF"/>
<path d="M27.6395 17.4453L26.6887 17.1398C26.4961 16.3406 26.182 15.5825 25.7514 14.8796L26.1835 14.0154C26.285 13.8126 26.2453 13.5674 26.0846 13.4067L24.5932 11.9153C24.432 11.7542 24.1879 11.7155 23.9845 11.8165L23.1199 12.2491C22.4782 11.8572 21.7824 11.5605 21.045 11.3643L20.5264 10.2915C20.4368 10.1128 20.2545 10 20.0547 10H17.9453C17.7455 10 17.5632 10.1128 17.4736 10.2915L16.955 11.3643C16.2175 11.5606 15.5218 11.8572 14.8801 12.2491L14.0154 11.8165C13.8115 11.714 13.5679 11.7537 13.4067 11.9154L11.9153 13.4067C11.7547 13.5674 11.715 13.8126 11.8165 14.0154L12.2491 14.8801C11.8572 15.5218 11.5605 16.2175 11.3643 16.955L10.2915 17.4736C10.1128 17.5632 10 17.7455 10 17.9453V20.0547C10 20.2545 10.1128 20.4368 10.2915 20.5264L11.3643 21.045C11.5425 21.7109 11.8077 22.35 12.1554 22.951L11.7877 24.0535C11.7248 24.2431 11.7743 24.4521 11.9154 24.5933L13.4068 26.0847C13.5484 26.2258 13.7564 26.2752 13.9465 26.2124L15.0491 25.8447C15.7119 26.2294 16.4127 26.5121 17.1399 26.6882L17.4453 27.6395C17.5169 27.8548 17.7182 28 17.9453 28H20.0547C20.2818 28 20.4832 27.8548 20.5548 27.6395L20.8602 26.6882C21.5873 26.512 22.2882 26.2293 22.951 25.8446L24.0536 26.2123C24.2436 26.2752 24.4527 26.2257 24.5933 26.0846L26.0847 24.5932C26.2258 24.4521 26.2752 24.243 26.2124 24.0535L25.8447 22.9509C26.2294 22.2881 26.5121 21.5873 26.6882 20.8601L27.6396 20.5547C27.8548 20.4832 28 20.2818 28 20.0547V17.9453C28 17.7182 27.8548 17.5169 27.6395 17.4453ZM19 24.8008C15.8014 24.8008 13.1992 22.1986 13.1992 19C13.1992 15.8014 15.8014 13.1992 19 13.1992C22.1986 13.1992 24.8008 15.8014 24.8008 19C24.8008 22.1986 22.1986 24.8008 19 24.8008Z" fill="#BD89FF"/>
<path d="M21.5648 20.5907C20.8998 21.2355 19.9971 21.6367 19.0001 21.6367C18.0031 21.6367 17.1003 21.2355 16.4354 20.5907C15.9997 21.0214 15.6653 21.5553 15.4829 22.1573C16.3524 23.125 17.5997 23.7461 19.0001 23.7461C20.4002 23.7461 21.6475 23.1253 22.5169 22.1579C22.3346 21.5555 22.0004 21.0215 21.5648 20.5907Z" fill="#BD89FF"/>
</g>
<defs>
<clipPath id="clip0_658_5874">
<rect width="18" height="18" fill="white" transform="translate(10 10)"/>
</clipPath>
</defs>
</svg>
