<svg width="8" height="9" viewBox="0 0 8 9" fill="none" xmlns="http://www.w3.org/2000/svg">
<g clip-path="url(#clip0_1455_17580)">
<path d="M7.7296 2.07571L5.30564 4.49991L7.7296 6.924C8.09015 7.28469 8.09015 7.86896 7.7296 8.22964C7.54945 8.40979 7.31326 8.49994 7.07719 8.49994C6.84072 8.49994 6.60451 8.40993 6.4245 8.22964L4.00002 5.80528L1.57572 8.22962C1.39559 8.40977 1.15938 8.49991 0.9231 8.49991C0.686889 8.49991 0.450839 8.40991 0.270551 8.22962C-0.0900001 7.86909 -0.0900001 7.2848 0.270551 6.92398L2.69444 4.49989L0.270414 2.07571C-0.0901379 1.71516 -0.0901379 1.13076 0.270414 0.770206C0.630896 0.409931 1.21496 0.409931 1.57558 0.770206L3.99999 3.19441L6.42423 0.770206C6.78492 0.409931 7.36905 0.409931 7.72946 0.770206C8.09015 1.13076 8.09015 1.71516 7.7296 2.07571Z" fill="white"/>
</g>
<defs>
<clipPath id="clip0_1455_17580">
<rect width="8" height="8" fill="white" transform="translate(0 0.5)"/>
</clipPath>
</defs>
</svg>
