<svg width="38" height="38" viewBox="0 0 38 38" fill="none" xmlns="http://www.w3.org/2000/svg">
<g clip-path="url(#clip0_658_5853)">
<rect x="0.503174" y="1" width="37" height="37" rx="5" fill="#37474F" fill-opacity="0.1"/>
<path d="M26.7733 22.611C25.6478 22.6804 24.1676 23.8049 22.74 24.4515C20.9903 25.2438 18.2665 24.6068 18.2662 24.6068C18.6864 24.4095 20.394 24.0029 20.7376 23.852C22.5655 23.0475 22.4106 21.372 21.54 21.3861C20.3899 21.4045 19.7148 21.6867 17.4198 21.9997C15.6804 22.2361 13.6231 22.1497 12.6364 22.5264C11.2434 23.0585 9 26.6383 9 26.6383L12.4686 30C12.4686 30 14.6162 27.8849 15.661 27.8849C18.042 27.8849 18.1381 27.8531 20.349 27.7328C21.2891 27.6826 21.4854 27.6439 22.0234 27.4626C24.8892 26.4937 27.9663 23.9133 28.0228 23.6037C28.1538 22.8839 27.3675 22.5751 26.7733 22.611Z" fill="#37474F"/>
<path d="M15.0634 15.3357L15.6175 15.4337C15.6227 15.4345 15.6276 15.4344 15.6327 15.4349C15.6554 15.7702 15.7155 16.0958 15.8106 16.4058C15.8038 16.4088 15.7972 16.411 15.7908 16.4154L15.3033 16.6963C15.2198 16.7449 15.1589 16.8241 15.1339 16.9168C15.1091 17.0105 15.1222 17.1098 15.1705 17.1925L15.8217 18.321C15.8891 18.4375 16.0113 18.5034 16.1368 18.5034C16.1983 18.5034 16.2608 18.4877 16.3182 18.4539L16.8056 18.1729C16.8169 18.1667 16.8271 18.1584 16.8369 18.1503C17.0627 18.386 17.3139 18.5952 17.5869 18.7756C17.5807 18.7872 17.574 18.7997 17.569 18.8132L17.3766 19.3427C17.3434 19.433 17.348 19.5331 17.3885 19.6204C17.4294 19.7077 17.503 19.7746 17.5937 19.8084L18.818 20.2541C18.8592 20.2688 18.9009 20.2756 18.9424 20.2756C19.0909 20.2756 19.2301 20.1843 19.2836 20.0364L19.4761 19.5075C19.4816 19.4928 19.4848 19.4779 19.4882 19.4631C19.6479 19.4806 19.8102 19.491 19.9744 19.491C20.139 19.491 20.301 19.4806 20.4607 19.463C20.4641 19.4778 20.4674 19.4927 20.4727 19.5074L20.6651 20.0364C20.6983 20.1273 20.7658 20.201 20.8531 20.2419C20.9018 20.2639 20.9539 20.2755 21.0069 20.2755C21.0487 20.2755 21.091 20.2679 21.131 20.2542L22.3554 19.8084C22.5441 19.7393 22.6412 19.5313 22.5728 19.3427L22.3802 18.8132C22.375 18.7997 22.3688 18.7872 22.3623 18.7755C22.635 18.5951 22.8865 18.3859 23.112 18.1502C23.1225 18.1583 23.1319 18.1666 23.1435 18.1728L23.631 18.4539C23.6867 18.4869 23.7494 18.5033 23.8128 18.5033C23.8442 18.5033 23.876 18.4986 23.9068 18.4908C23.9995 18.4655 24.0793 18.4048 24.1272 18.321L24.7788 17.1925C24.879 17.0187 24.8196 16.7968 24.6458 16.6964L24.1584 16.4154C24.1518 16.411 24.145 16.4088 24.1389 16.4058C24.2332 16.0958 24.2935 15.7701 24.3162 15.4349C24.3212 15.4342 24.3262 15.4344 24.3315 15.4336L24.8858 15.3357C24.9808 15.3191 25.0652 15.2653 25.1205 15.1866C25.1756 15.108 25.1972 15.0103 25.1807 14.9149L24.9541 13.6322C24.9375 13.5367 24.8838 13.4522 24.8049 13.3978C24.7258 13.3424 24.6283 13.3202 24.5333 13.3368L23.9801 13.4345C23.8484 13.1258 23.6809 12.8353 23.4844 12.567L23.8426 12.1408C23.9047 12.0671 23.9347 11.9713 23.9262 11.8759C23.9177 11.7795 23.8717 11.691 23.7975 11.6292L22.7997 10.7914C22.7257 10.7297 22.6304 10.6994 22.5343 10.7075C22.4383 10.7164 22.3495 10.7624 22.2876 10.8361L21.9369 11.2545C21.6391 11.1027 21.3219 10.985 20.9895 10.9059V10.3633C20.9895 10.1632 20.8269 10 20.6263 10H19.3234C19.1225 10 18.9597 10.1633 18.9597 10.3633V10.9059C18.6277 10.985 18.3104 11.1028 18.0125 11.2546L17.6615 10.8362C17.5996 10.7625 17.5109 10.7165 17.4149 10.7076C17.3191 10.6995 17.2235 10.7298 17.1499 10.7915L16.1515 11.6293C15.9978 11.7583 15.9777 11.9868 16.1068 12.1409L16.4647 12.567C16.2681 12.8353 16.1012 13.1258 15.969 13.4345L15.4159 13.3369C15.3214 13.3203 15.2234 13.3424 15.1447 13.3978C15.0657 13.4522 15.0119 13.5367 14.9952 13.6322L14.7692 14.9149C14.7338 15.1128 14.8658 15.3013 15.0634 15.3357ZM17.1202 15.1716C17.1202 13.5972 18.4006 12.3171 19.9744 12.3171C21.5483 12.3171 22.8288 13.5973 22.8288 15.1716C22.8288 16.7459 21.5483 18.026 19.9744 18.026C18.4006 18.026 17.1202 16.7459 17.1202 15.1716Z" fill="#37474F"/>
</g>
<defs>
<clipPath id="clip0_658_5853">
<rect width="37.2333" height="37.2333" fill="white" transform="translate(0.270752 0.579163)"/>
</clipPath>
</defs>
</svg>
