<svg width="37" height="37" viewBox="0 0 37 37" fill="none" xmlns="http://www.w3.org/2000/svg">
<rect width="37" height="37" rx="5" fill="#37474F" fill-opacity="0.1"/>
<path d="M18.4064 5.39688C15.9149 5.40183 13.4787 6.16549 11.3943 7.59482C9.30988 9.02415 7.66735 11.0575 6.66673 13.4471C5.66612 15.8368 5.35062 18.4796 5.75866 21.0537C6.1667 23.6278 7.28067 26.022 8.96488 27.9449C10.1678 29.3105 11.6277 30.4003 13.2527 31.1457C14.8776 31.8911 16.6324 32.276 18.4064 32.276C20.1804 32.276 21.9351 31.8911 23.5601 31.1457C25.1851 30.4003 26.645 29.3105 27.8479 27.9449C29.5321 26.022 30.646 23.6278 31.0541 21.0537C31.4621 18.4796 31.1466 15.8368 30.146 13.4471C29.1454 11.0575 27.5029 9.02415 25.4185 7.59482C23.3341 6.16549 20.8978 5.40183 18.4064 5.39688ZM18.4064 29.6131C15.7454 29.6089 13.1897 28.5237 11.2771 26.5861C11.8578 25.1056 12.8456 23.8393 14.115 22.9481C15.3844 22.0569 16.8781 21.5811 18.4064 21.5811C19.9346 21.5811 21.4283 22.0569 22.6978 22.9481C23.9672 23.8393 24.955 25.1056 25.5357 26.5861C23.6231 28.5237 21.0674 29.6089 18.4064 29.6131ZM15.8373 16.1596C15.8373 15.6275 15.9879 15.1073 16.2702 14.6648C16.5525 14.2223 16.9538 13.8774 17.4232 13.6738C17.8927 13.4701 18.4092 13.4168 18.9076 13.5206C19.4059 13.6245 19.8637 13.8807 20.223 14.257C20.5823 14.6333 20.827 15.1128 20.9261 15.6347C21.0253 16.1567 20.9744 16.6977 20.7799 17.1893C20.5855 17.681 20.2562 18.1012 19.8337 18.3969C19.4112 18.6925 18.9145 18.8503 18.4064 18.8503C17.725 18.8503 17.0715 18.5668 16.5897 18.0622C16.1079 17.5576 15.8373 16.8733 15.8373 16.1596ZM27.2827 24.2317C26.135 22.1757 24.3685 20.5764 22.26 19.6844C22.9141 18.9077 23.3403 17.9498 23.4874 16.9257C23.6345 15.9016 23.4964 14.8548 23.0895 13.9109C22.6827 12.967 22.0244 12.1661 21.1937 11.6043C20.363 11.0424 19.3952 10.7436 18.4064 10.7436C17.4175 10.7436 16.4497 11.0424 15.619 11.6043C14.7883 12.1661 14.13 12.967 13.7232 13.9109C13.3164 14.8548 13.1782 15.9016 13.3253 16.9257C13.4725 17.9498 13.8986 18.9077 14.5527 19.6844C12.4442 20.5764 10.6778 22.1757 9.53009 24.2317C8.61541 22.5999 8.13213 20.7425 8.12992 18.8503C8.12992 15.9959 9.21262 13.2583 11.1398 11.2399C13.067 9.2215 15.6809 8.08757 18.4064 8.08757C21.1319 8.08757 23.7457 9.2215 25.6729 11.2399C27.6001 13.2583 28.6828 15.9959 28.6828 18.8503C28.6806 20.7425 28.1973 22.5999 27.2827 24.2317Z" fill="#37474F"/>
</svg>
