<svg width="20" height="20" viewBox="0 0 20 20" fill="none" xmlns="http://www.w3.org/2000/svg">
<g clip-path="url(#clip0_1455_17224)">
<path d="M3.23682 6.26953L4.20026 17.9C4.2693 18.7387 4.98373 19.3963 5.82565 19.3963H14.7027C15.5446 19.3963 16.2591 18.7387 16.3281 17.9L17.2915 6.26953H3.23682ZM7.54403 17.2206C7.2593 17.2206 7.01975 16.9991 7.0017 16.7106L6.45777 7.93529C6.43917 7.63519 6.66704 7.37704 6.96663 7.35844C7.27736 7.33664 7.52437 7.5672 7.54348 7.8673L8.08741 16.6427C8.10667 16.9534 7.86077 17.2206 7.54403 17.2206ZM10.8081 16.6767C10.8081 16.9773 10.5648 17.2206 10.2642 17.2206C9.96352 17.2206 9.72024 16.9773 9.72024 16.6767V7.90131C9.72024 7.60067 9.96352 7.35739 10.2642 7.35739C10.5648 7.35739 10.8081 7.60067 10.8081 7.90131V16.6767ZM14.0706 7.93533L13.5266 16.7107C13.5088 16.9962 13.2708 17.2342 12.9498 17.2195C12.6502 17.2009 12.4223 16.9428 12.4409 16.6427L12.9849 7.86733C13.0035 7.56723 13.2664 7.3489 13.5617 7.35847C13.8613 7.37708 14.0892 7.63522 14.0706 7.93533Z" fill="white"/>
<path d="M17.3349 3.00579H14.0714V2.46186C14.0714 1.56206 13.3394 0.830078 12.4396 0.830078H8.08818C7.18838 0.830078 6.4564 1.56206 6.4564 2.46186V3.00579H3.19283C2.59201 3.00579 2.10498 3.49282 2.10498 4.09364C2.10498 4.69439 2.59201 5.18149 3.19283 5.18149C8.19573 5.18149 12.3322 5.18149 17.3349 5.18149C17.9358 5.18149 18.4228 4.69439 18.4228 4.09364C18.4228 3.49282 17.9358 3.00579 17.3349 3.00579ZM12.9835 3.00579H7.54425V2.46186C7.54425 2.16176 7.78807 1.91793 8.08818 1.91793H12.4396C12.7397 1.91793 12.9835 2.16176 12.9835 2.46186V3.00579Z" fill="white"/>
</g>
<defs>
<clipPath id="clip0_1455_17224">
<rect width="18.566" height="18.566" fill="white" transform="translate(0.980957 0.830078)"/>
</clipPath>
</defs>
</svg>
