<svg width="152" height="132" viewBox="0 0 152 132" fill="none" xmlns="http://www.w3.org/2000/svg">
<path d="M118.164 131.553L118.733 114.762L106.145 112.856L105.378 131.741" fill="white"/>
<path d="M105.378 132C105.311 131.997 105.248 131.969 105.203 131.92C105.157 131.872 105.132 131.807 105.134 131.741L105.901 112.851C105.902 112.815 105.911 112.779 105.926 112.747C105.942 112.715 105.965 112.686 105.993 112.663C106.02 112.64 106.052 112.624 106.086 112.615C106.12 112.606 106.156 112.605 106.191 112.612L118.784 114.518C118.845 114.528 118.901 114.56 118.94 114.607C118.979 114.655 119 114.715 118.998 114.777L118.428 131.548C118.427 131.581 118.419 131.614 118.405 131.644C118.391 131.675 118.371 131.702 118.347 131.725C118.322 131.747 118.294 131.765 118.262 131.776C118.231 131.788 118.198 131.793 118.164 131.792C118.131 131.79 118.098 131.783 118.068 131.769C118.037 131.755 118.01 131.735 117.987 131.71C117.965 131.686 117.947 131.657 117.936 131.626C117.924 131.594 117.919 131.561 117.92 131.528L118.474 114.991L106.384 113.161L105.632 131.761C105.628 131.826 105.6 131.887 105.552 131.931C105.505 131.976 105.443 132 105.378 132Z" fill="#1E293B"/>
<path d="M56.7325 124.301L71.1349 107.225L84.0128 110.376L67.6029 127.162" fill="white"/>
<path d="M67.603 127.421C67.536 127.42 67.4721 127.393 67.4251 127.345C67.4015 127.322 67.3827 127.294 67.3698 127.264C67.357 127.233 67.3504 127.2 67.3504 127.167C67.3504 127.134 67.357 127.101 67.3698 127.071C67.3827 127.04 67.4015 127.012 67.4251 126.989L83.5199 110.518L71.2265 107.51L56.9257 124.468C56.8807 124.519 56.8184 124.55 56.7513 124.555C56.6843 124.561 56.6176 124.541 56.5649 124.499C56.5137 124.455 56.4818 124.392 56.4761 124.325C56.4704 124.257 56.4913 124.19 56.5344 124.138L70.9673 107.063C70.9976 107.026 71.0376 106.999 71.0826 106.985C71.1275 106.971 71.1757 106.969 71.2214 106.981L84.0993 110.127C84.1421 110.139 84.1812 110.162 84.2131 110.193C84.2451 110.224 84.2688 110.262 84.2822 110.305C84.294 110.348 84.2946 110.394 84.2839 110.437C84.2733 110.481 84.2517 110.521 84.2212 110.554L67.8114 127.325C67.7861 127.355 67.7543 127.38 67.7182 127.397C67.6822 127.413 67.6428 127.422 67.603 127.421Z" fill="#1E293B"/>
<path d="M112.548 38.3383C112.548 38.3383 92.9725 43.7049 93.1605 44.4672C93.3485 45.2295 97.1702 59.3474 97.1702 59.3474L109.367 56.2982L112.548 38.3383Z" fill="#F4B733"/>
<path d="M112.945 38.2213C112.945 38.2213 106.73 39.8882 102.918 42.0836C99.1065 44.2791 100.153 67.6767 100.153 67.6767L128.394 73.3686C128.394 73.3686 133.771 58.1733 133.405 51.2364C133.039 44.2994 128.75 34.4606 112.945 38.2213Z" fill="#F4B733"/>
<path d="M98.8829 56.2729C98.8511 56.2801 98.8181 56.2801 98.7863 56.2729C98.7229 56.2459 98.6725 56.1952 98.6459 56.1316C98.6193 56.068 98.6186 55.9965 98.644 55.9324C100.489 51.3941 103.269 44.4724 103.345 43.9896C103.346 43.9558 103.353 43.9225 103.367 43.8915C103.38 43.8606 103.4 43.8327 103.425 43.8096C103.449 43.7864 103.478 43.7683 103.51 43.7565C103.542 43.7446 103.575 43.7392 103.609 43.7406C103.679 43.7432 103.745 43.7728 103.793 43.823C103.841 43.8732 103.868 43.9402 103.868 44.0099C103.868 44.447 100.555 52.6494 99.1268 56.1306C99.1043 56.1753 99.0692 56.2126 99.0259 56.2379C98.9826 56.2631 98.9329 56.2753 98.8829 56.2729Z" fill="#1E293B"/>
<path d="M114.673 35.3702L112.681 41.3569C112.681 41.3569 112.63 44.9143 116.579 44.6043C117.745 44.5 118.873 44.1376 119.882 43.5435C120.891 42.9493 121.756 42.1382 122.413 41.1688L124.08 30.4356C123.475 29.9086 123.091 29.1741 123.002 28.3774C122.915 27.781 122.932 27.1739 123.053 26.5834C123.239 25.7905 123.535 25.0276 123.932 24.3168C122.054 24.0238 120.332 23.1009 119.048 21.6996C118.743 21.3272 118.458 20.9387 118.195 20.5358C118.073 20.3478 115.567 21.5217 115.303 21.6539C114.012 22.2229 112.911 23.1507 112.132 24.327C111.615 25.3435 111.288 26.4457 111.166 27.5795C110.87 29.1376 110.72 30.7199 110.719 32.3058C110.749 35.3296 114.673 35.3702 114.673 35.3702Z" fill="white"/>
<path d="M116.086 44.8583C115.155 44.9029 114.244 44.584 113.545 43.969C112.859 43.2709 112.469 42.3351 112.457 41.3568C112.455 41.3332 112.455 41.3093 112.457 41.2857L114.353 35.5887C113.387 35.4972 110.516 35.0043 110.49 32.321C110.492 30.7231 110.644 29.1289 110.943 27.5591C111.074 26.3917 111.418 25.2582 111.959 24.2151C112.744 23.0011 113.863 22.0393 115.181 21.4454C118.103 20.0021 118.296 20.2969 118.367 20.429C118.367 20.429 118.876 21.2218 119.201 21.5674C120.448 22.9348 122.128 23.8319 123.958 24.1084C123.993 24.1151 124.027 24.1302 124.055 24.1524C124.084 24.1745 124.107 24.2032 124.122 24.2359C124.137 24.2686 124.145 24.3045 124.144 24.3407C124.142 24.3768 124.133 24.4122 124.115 24.4438C123.727 25.1354 123.438 25.8778 123.256 26.6494C123.145 27.2154 123.129 27.7961 123.211 28.3672C123.288 29.1039 123.64 29.7844 124.196 30.2729C124.231 30.2967 124.258 30.33 124.274 30.3687C124.291 30.4075 124.295 30.4501 124.288 30.4914L122.621 41.2247C122.616 41.2551 122.606 41.2844 122.591 41.3111C121.92 42.3185 121.03 43.1615 119.989 43.7775C118.947 44.3934 117.779 44.7663 116.573 44.8685C116.416 44.8583 116.248 44.8583 116.086 44.8583ZM112.904 41.3975C112.928 42.2339 113.263 43.0313 113.844 43.6336C114.216 43.9424 114.65 44.1683 115.116 44.2962C115.582 44.4242 116.071 44.4512 116.548 44.3755C117.669 44.2718 118.754 43.9241 119.727 43.357C120.699 42.7899 121.536 42.0171 122.179 41.0925L123.82 30.5321C123.232 29.9704 122.858 29.2209 122.763 28.4129C122.671 27.7985 122.684 27.1728 122.804 26.563C122.967 25.8548 123.224 25.1713 123.566 24.5302C121.751 24.1914 120.096 23.2709 118.85 21.9079C118.586 21.6081 118.195 21.0287 118.042 20.8051C117.133 21.116 116.245 21.4861 115.384 21.913C114.145 22.4699 113.089 23.3646 112.335 24.4947C111.829 25.4912 111.505 26.5704 111.38 27.6811C111.088 29.2243 110.938 30.7911 110.932 32.3616C110.963 35.1161 114.49 35.1872 114.652 35.1923C114.688 35.1925 114.724 35.2014 114.756 35.2182C114.788 35.235 114.815 35.2592 114.835 35.2889C114.857 35.3184 114.872 35.3526 114.878 35.3888C114.884 35.425 114.882 35.4622 114.871 35.4972L112.904 41.3975Z" fill="#1E293B"/>
<path d="M121.976 29.4752C122.168 29.0485 122.49 28.6929 122.895 28.4588C123.288 28.255 123.712 28.1208 124.151 28.0624C124.386 28.0066 124.632 28.0066 124.867 28.0624C125.03 28.115 125.18 28.1996 125.309 28.3114C125.639 28.5414 125.875 28.8823 125.975 29.2719C126.016 29.5944 125.98 29.922 125.868 30.2273C125.773 30.5663 125.633 30.891 125.452 31.1929C125.264 31.4905 125.02 31.7479 124.733 31.9502C124.445 32.1525 124.12 32.2956 123.777 32.3713C123.434 32.4469 123.079 32.4536 122.733 32.3909C122.387 32.3282 122.057 32.1974 121.762 32.0061" fill="white"/>
<path d="M123.211 32.5958C122.657 32.5963 122.116 32.4375 121.65 32.1384C121.605 32.1093 121.574 32.0636 121.562 32.0112C121.551 31.9589 121.561 31.9042 121.589 31.8589C121.603 31.8361 121.622 31.8164 121.644 31.8009C121.665 31.7855 121.69 31.7745 121.716 31.7688C121.742 31.7631 121.769 31.7628 121.795 31.7678C121.822 31.7728 121.847 31.7831 121.869 31.798C122.142 31.9742 122.448 32.0945 122.768 32.1521C123.088 32.2096 123.416 32.2033 123.734 32.1334C124.364 31.983 124.911 31.5929 125.259 31.0458C125.431 30.7583 125.565 30.4489 125.655 30.126C125.754 29.8529 125.788 29.5608 125.757 29.2722C125.664 28.9311 125.455 28.6329 125.167 28.4286C125.055 28.3358 124.928 28.2635 124.791 28.2151C124.585 28.1699 124.372 28.1699 124.166 28.2151C123.751 28.2727 123.349 28.3998 122.977 28.5912C122.605 28.8068 122.313 29.1365 122.143 29.5314C122.133 29.556 122.119 29.5784 122.1 29.5972C122.081 29.616 122.058 29.6308 122.034 29.6408C122.009 29.6507 121.983 29.6556 121.956 29.6552C121.93 29.6547 121.903 29.6489 121.879 29.6381C121.854 29.6287 121.831 29.6142 121.812 29.5955C121.793 29.5768 121.778 29.5543 121.767 29.5295C121.757 29.5046 121.753 29.4779 121.754 29.4511C121.754 29.4243 121.761 29.398 121.772 29.3738C121.978 28.8951 122.335 28.497 122.789 28.2405C123.201 28.027 123.646 27.8844 124.105 27.8187C124.373 27.7577 124.65 27.7577 124.918 27.8187C125.102 27.8819 125.274 27.9764 125.426 28.0982C125.794 28.3607 126.056 28.7467 126.163 29.1858C126.212 29.5386 126.174 29.8982 126.051 30.2327C125.951 30.5894 125.804 30.9312 125.614 31.2491C125.412 31.5694 125.149 31.8465 124.839 32.0646C124.53 32.2826 124.18 32.4373 123.81 32.5196C123.614 32.5669 123.413 32.5924 123.211 32.5958Z" fill="#1E293B"/>
<path d="M113.656 38.5313C115.106 38.6776 116.562 38.3186 117.778 37.5149C119.709 36.1681 119.811 34.4657 119.811 34.4657C118.193 35.1661 116.433 35.476 114.673 35.3703L113.656 38.5313Z" fill="#1E293B"/>
<path d="M114.236 38.7855C114.028 38.7879 113.821 38.776 113.616 38.7499C113.583 38.7455 113.552 38.7341 113.525 38.7165C113.497 38.6988 113.474 38.6753 113.457 38.6477C113.439 38.6201 113.428 38.589 113.424 38.5566C113.42 38.5243 113.423 38.4913 113.433 38.4602L114.449 35.3043C114.465 35.2579 114.495 35.2177 114.536 35.1894C114.576 35.1611 114.624 35.1462 114.673 35.1468C116.394 35.2307 118.111 34.9141 119.689 34.2218C119.723 34.2031 119.761 34.1934 119.801 34.1934C119.84 34.1934 119.878 34.2031 119.912 34.2218C119.945 34.2435 119.971 34.273 119.989 34.3077C120.007 34.3424 120.015 34.3811 120.014 34.42C120.014 34.4963 119.892 36.2699 117.895 37.6674C116.816 38.4011 115.54 38.7909 114.236 38.7855ZM113.946 38.3281C115.253 38.394 116.547 38.0376 117.636 37.3117C118.537 36.7257 119.198 35.8344 119.496 34.8012C118.009 35.3807 116.42 35.6554 114.825 35.6092L113.946 38.3281Z" fill="#1E293B"/>
<path d="M117.321 25.0997C117.321 25.0997 114.78 27.6407 115.135 28.2709C115.491 28.9011 116.889 28.7791 116.889 28.7791" fill="white"/>
<path d="M116.706 29.0231C116.269 29.0231 115.293 28.9571 114.947 28.3879C114.53 27.7069 116.36 25.7503 117.168 24.9423C117.189 24.9209 117.214 24.9039 117.241 24.8923C117.269 24.8808 117.298 24.8748 117.328 24.8748C117.358 24.8748 117.387 24.8808 117.415 24.8923C117.442 24.9039 117.467 24.9209 117.488 24.9423C117.53 24.985 117.554 25.0425 117.554 25.1024C117.554 25.1622 117.53 25.2197 117.488 25.2624C116.197 26.5634 115.181 27.8898 115.328 28.1541C115.567 28.5556 116.548 28.5861 116.853 28.5708C116.912 28.5693 116.97 28.5906 117.015 28.6302C117.059 28.6699 117.087 28.725 117.092 28.7843C117.093 28.8137 117.089 28.843 117.079 28.8707C117.069 28.8983 117.053 28.9237 117.034 28.9454C117.014 28.9672 116.99 28.9847 116.963 28.9972C116.937 29.0097 116.908 29.0168 116.878 29.0181L116.706 29.0231Z" fill="#1E293B"/>
<path d="M113.422 30.268L118.367 30.202C118.367 30.202 118.144 33.5561 115.267 33.7594C112.391 33.9627 113.422 30.268 113.422 30.268Z" fill="#1E293B"/>
<path d="M118.489 25.1047C118.554 24.9649 118.654 24.8445 118.78 24.7553C118.906 24.6662 119.052 24.6115 119.206 24.5965C119.775 24.505 120.065 25.1708 120.065 25.1708" fill="white"/>
<path d="M120.065 25.3742C120.021 25.375 119.978 25.3629 119.941 25.3394C119.904 25.3159 119.874 25.2821 119.856 25.242C119.856 25.242 119.633 24.7338 119.241 24.7999C119.127 24.8111 119.017 24.8516 118.923 24.9175C118.829 24.9833 118.753 25.0723 118.703 25.1759C118.682 25.2322 118.64 25.2781 118.586 25.3038C118.532 25.3295 118.47 25.3328 118.413 25.3132C118.358 25.2935 118.313 25.2534 118.288 25.2012C118.262 25.149 118.258 25.0889 118.276 25.0337C118.35 24.8514 118.471 24.6924 118.628 24.5735C118.784 24.4545 118.97 24.38 119.165 24.3577C119.897 24.2358 120.253 25.0286 120.268 25.0641C120.28 25.0912 120.286 25.1202 120.287 25.1497C120.287 25.1792 120.282 25.2084 120.271 25.2358C120.26 25.2632 120.244 25.2882 120.223 25.3093C120.203 25.3304 120.178 25.3473 120.151 25.3589L120.065 25.3742Z" fill="#1E293B"/>
<path d="M113.91 24.6725C113.975 24.5327 114.075 24.4123 114.201 24.3231C114.327 24.234 114.473 24.1792 114.627 24.1643C115.196 24.0677 115.486 24.7386 115.486 24.7386" fill="white"/>
<path d="M115.486 24.9469C115.441 24.9474 115.398 24.9345 115.361 24.9101C115.324 24.8857 115.295 24.8507 115.277 24.8097C115.277 24.8097 115.054 24.3015 114.663 24.3727C114.548 24.3829 114.438 24.423 114.343 24.489C114.249 24.555 114.173 24.6445 114.124 24.7487C114.103 24.805 114.061 24.8509 114.007 24.8766C113.953 24.9023 113.891 24.9056 113.834 24.886C113.779 24.8653 113.734 24.8242 113.709 24.7712C113.683 24.7182 113.679 24.6573 113.697 24.6014C113.772 24.4197 113.893 24.2613 114.05 24.1425C114.206 24.0237 114.391 23.9487 114.586 23.9255C115.318 23.8035 115.674 24.6014 115.689 24.6319C115.702 24.6588 115.708 24.6879 115.709 24.7176C115.71 24.7473 115.705 24.7768 115.694 24.8044C115.683 24.8319 115.667 24.857 115.646 24.878C115.625 24.899 115.6 24.9156 115.572 24.9266C115.545 24.94 115.516 24.947 115.486 24.9469Z" fill="#1E293B"/>
<path d="M127.83 73.0079L123.785 126.984L56.5395 113.237L101.241 67.377L127.83 73.0079Z" fill="#1E293B"/>
<path d="M98.8829 33.4136L19.9082 46.576L54.6489 11.2661L98.8829 33.4136Z" fill="#1E293B"/>
<path d="M19.9082 46.8306C19.8581 46.8309 19.8089 46.8163 19.767 46.7887C19.7251 46.7612 19.6923 46.7218 19.6728 46.6756C19.6532 46.6294 19.6478 46.5784 19.6571 46.5292C19.6664 46.4799 19.6902 46.4344 19.7253 46.3986L54.466 11.0836C54.5041 11.0459 54.553 11.0212 54.606 11.013C54.6589 11.0047 54.7131 11.0135 54.7608 11.0379L98.9744 33.1904C99.0238 33.2124 99.0643 33.2506 99.0892 33.2986C99.1142 33.3466 99.122 33.4016 99.1116 33.4547C99.1068 33.5075 99.0855 33.5574 99.0509 33.5975C99.0163 33.6376 98.97 33.6658 98.9185 33.6783L19.9489 46.8255L19.9082 46.8306ZM54.7049 11.5766L20.6553 46.1953L98.0698 33.2921L54.7049 11.5766Z" fill="#1E293B"/>
<path d="M106.175 86.394L31.6781 99.7953L20.0097 47.0439L98.9438 33.8814L106.175 86.394Z" fill="#1E293B"/>
<path d="M31.6831 100.049C31.625 100.051 31.5683 100.032 31.5228 99.9953C31.4774 99.9591 31.446 99.9081 31.4341 99.8512L19.7455 47.0947C19.7315 47.0282 19.7443 46.9588 19.781 46.9016C19.8002 46.8717 19.8255 46.8463 19.8553 46.827C19.8851 46.8077 19.9187 46.7951 19.9538 46.7898L98.9183 33.6274C98.9862 33.6169 99.0555 33.6333 99.1115 33.6731C99.1392 33.6935 99.1626 33.7193 99.18 33.749C99.1975 33.7788 99.2088 33.8117 99.2131 33.8459L106.445 86.3585C106.45 86.3908 106.448 86.4239 106.441 86.4557C106.433 86.4876 106.419 86.5176 106.4 86.544C106.38 86.5704 106.356 86.5928 106.328 86.6098C106.3 86.6268 106.269 86.6381 106.236 86.6431L31.7238 100.044L31.6831 100.049ZM20.3146 47.2472L31.8763 99.5057L105.891 86.1857L98.7303 34.1864L20.3146 47.2472Z" fill="#1E293B"/>
<path d="M37.9341 82.3385C37.9341 82.3385 24.2127 39.9849 17.606 27.1071L91.1582 7.07373L95.732 72.6319L37.9341 82.3385Z" fill="#F4B733"/>
<path d="M30.4891 34.5164C30.4325 34.5167 30.3776 34.4977 30.3332 34.4626C30.2889 34.4275 30.2578 34.3784 30.2451 34.3233C30.228 34.2586 30.2371 34.1898 30.2704 34.1317C30.3037 34.0737 30.3585 34.0311 30.423 34.0133L84.511 19.992C84.5784 19.9751 84.6497 19.9857 84.7093 20.0215C84.7689 20.0572 84.8118 20.1152 84.8286 20.1826C84.8455 20.25 84.8349 20.3213 84.7991 20.3808C84.7634 20.4404 84.7055 20.4833 84.6381 20.5002L30.5501 34.5062L30.4891 34.5164Z" fill="white"/>
<path d="M32.7759 43.3845C32.7184 43.3855 32.6624 43.3662 32.6178 43.3299C32.5731 43.2937 32.5427 43.2428 32.532 43.1863C32.5245 43.1539 32.5236 43.1204 32.5294 43.0876C32.5351 43.0549 32.5473 43.0236 32.5653 42.9957C32.5833 42.9677 32.6067 42.9437 32.6342 42.9249C32.6616 42.9062 32.6925 42.8931 32.7251 42.8865L85.0954 31.1368C85.1628 31.1227 85.233 31.1359 85.2907 31.1735C85.3483 31.2112 85.3887 31.2702 85.4028 31.3376C85.417 31.405 85.4038 31.4752 85.3661 31.5329C85.3285 31.5905 85.2695 31.6309 85.2021 31.645L32.8521 43.3794L32.7759 43.3845Z" fill="white"/>
<path d="M37.2632 51.6837C37.2044 51.6847 37.1471 51.6648 37.1015 51.6276C37.0559 51.5904 37.025 51.5382 37.0142 51.4804C37.0075 51.4477 37.0073 51.414 37.0137 51.3812C37.02 51.3485 37.0328 51.3173 37.0512 51.2894C37.0696 51.2616 37.0933 51.2376 37.1209 51.2189C37.1486 51.2003 37.1797 51.1872 37.2124 51.1806L87.2957 41.4536C87.3281 41.4469 87.3615 41.4468 87.394 41.4532C87.4264 41.4596 87.4572 41.4724 87.4847 41.4909C87.5121 41.5093 87.5356 41.533 87.5538 41.5607C87.5719 41.5883 87.5844 41.6193 87.5905 41.6518C87.5979 41.6845 87.5986 41.7184 87.5925 41.7514C87.5865 41.7845 87.5738 41.8159 87.5553 41.8439C87.5368 41.8719 87.5128 41.8959 87.4848 41.9144C87.4568 41.9329 87.4253 41.9456 87.3923 41.9516L37.3089 51.6786L37.2632 51.6837Z" fill="white"/>
<path d="M39.6468 62.2747C39.5794 62.2801 39.5127 62.2585 39.4612 62.2147C39.4097 62.1708 39.3778 62.1083 39.3724 62.0409C39.367 61.9735 39.3886 61.9068 39.4324 61.8553C39.4763 61.8038 39.5388 61.7719 39.6062 61.7665L87.1129 54.0367C87.1803 54.026 87.2493 54.0424 87.3045 54.0824C87.3598 54.1224 87.3969 54.1828 87.4077 54.2502C87.4185 54.3176 87.4021 54.3865 87.362 54.4418C87.322 54.4971 87.2616 54.5342 87.1943 54.5449L39.6875 62.2696L39.6468 62.2747Z" fill="white"/>
<path d="M64.6909 67.4482L20.0097 47.0439L31.6781 99.7953L106.175 86.394L98.9438 33.8814L64.6909 67.4482Z" fill="white"/>
<path d="M31.6831 100.049C31.6249 100.05 31.5682 100.031 31.5228 99.9951C31.4773 99.9589 31.4459 99.9079 31.434 99.851L19.7454 47.0945C19.7352 47.0482 19.7383 47 19.7541 46.9553C19.7699 46.9106 19.7979 46.8713 19.8349 46.8417C19.8719 46.8121 19.9164 46.7934 19.9635 46.7878C20.0105 46.7822 20.0582 46.7898 20.1011 46.8099L64.6248 67.138L98.7658 33.6779C98.7994 33.6443 98.8417 33.6207 98.888 33.6099C98.9344 33.5991 98.9828 33.6015 99.0278 33.6169C99.0728 33.6322 99.1126 33.6599 99.1426 33.6968C99.1727 33.7336 99.1918 33.7781 99.1978 33.8253L106.43 86.3379C106.435 86.3702 106.433 86.4033 106.425 86.4351C106.418 86.467 106.404 86.497 106.384 86.5234C106.365 86.5499 106.341 86.5722 106.313 86.5892C106.285 86.6062 106.254 86.6175 106.221 86.6225L31.7237 100.044L31.6831 100.049ZM20.3654 47.4858L31.8762 99.5054L105.891 86.1854L98.776 34.4148L64.8687 67.6309C64.8315 67.6665 64.7843 67.6899 64.7335 67.6981C64.6827 67.7062 64.6306 67.6988 64.5841 67.6767L20.3654 47.4858Z" fill="#1E293B"/>
<path d="M106.181 86.3938L31.6833 99.7951L64.6961 67.448L106.181 86.3938Z" fill="white"/>
<path d="M31.6832 100.049C31.6361 100.05 31.5898 100.038 31.5494 100.013C31.509 99.9891 31.4761 99.9541 31.4545 99.9123C31.4299 99.8643 31.4215 99.8096 31.4307 99.7564C31.4399 99.7033 31.4661 99.6545 31.5053 99.6175L64.5385 67.2654C64.5757 67.2298 64.6228 67.2064 64.6737 67.1982C64.7245 67.1901 64.7766 67.1975 64.8231 67.2196L106.303 86.1603C106.352 86.1834 106.392 86.2213 106.419 86.2687C106.445 86.3161 106.456 86.3707 106.45 86.4246C106.443 86.4778 106.42 86.5276 106.384 86.5668C106.347 86.6061 106.299 86.6328 106.247 86.6431L31.7289 100.049H31.6832ZM64.7468 67.7532L32.4506 99.399L105.332 86.2874L64.7468 67.7532Z" fill="#1E293B"/>
<path d="M106.181 86.3938L31.6833 99.7951L64.6961 67.448L106.181 86.3938Z" fill="white"/>
<path d="M31.6832 100.049C31.6361 100.05 31.5898 100.038 31.5494 100.013C31.509 99.9891 31.4761 99.9541 31.4545 99.9123C31.4299 99.8643 31.4215 99.8096 31.4307 99.7564C31.4399 99.7033 31.4661 99.6545 31.5053 99.6175L64.5385 67.2654C64.5757 67.2298 64.6228 67.2064 64.6737 67.1982C64.7245 67.1901 64.7766 67.1975 64.8231 67.2196L106.303 86.1603C106.352 86.1834 106.392 86.2213 106.419 86.2687C106.445 86.3161 106.456 86.3707 106.45 86.4246C106.443 86.4778 106.42 86.5276 106.384 86.5668C106.347 86.6061 106.299 86.6328 106.247 86.6431L31.7289 100.049H31.6832ZM64.7468 67.7532L32.4506 99.399L105.332 86.2874L64.7468 67.7532Z" fill="#1E293B"/>
<path d="M100.997 13.7057C100.997 13.7057 99.9145 17.7713 96.4943 17.8729C96.4943 17.8729 100.103 18.8893 100.86 22.274C101.196 21.3349 101.751 20.4896 102.479 19.8081C103.208 19.1267 104.088 18.6288 105.047 18.3557C104.065 17.9363 103.191 17.3002 102.489 16.4949C101.788 15.6896 101.278 14.7361 100.997 13.7057Z" fill="#E2E8F0"/>
<path d="M2.78171 44.5992C2.78171 44.5992 5.51075 48.5022 3.09171 51.5209C3.09171 51.5209 6.59323 49.1425 10.0693 50.9568C9.50387 49.9834 9.17892 48.889 9.12146 47.7647C9.06401 46.6403 9.27572 45.5185 9.739 44.4925C9.739 44.4925 6.76602 46.2915 2.78171 44.5992Z" fill="#E2E8F0"/>
<path d="M27.262 12.7757C27.262 12.7757 27.8362 19.5754 22.6881 21.5727C22.6881 21.5727 28.7307 21.1458 31.7341 25.8924C31.7341 25.8924 31.5207 20.6884 35.9726 17.6544C35.9319 17.6544 30.9617 17.7459 27.262 12.7757Z" fill="#E2E8F0"/>
<path d="M125.071 46.9979C125.071 46.9979 85.5782 67.0261 79.5662 68.1747C73.5542 69.3232 66.4038 67.3158 66.6884 69.0335C66.973 70.7513 70.4084 71.605 70.4084 71.605C70.4084 71.605 59.538 73.3228 60.1071 74.4713C60.6763 75.6198 67.8369 74.1816 67.8369 74.1816C67.8369 74.1816 58.9637 76.7582 60.966 77.9017C62.9683 79.0451 69.2649 76.4736 69.2649 76.4736C69.2649 76.4736 59.8225 81.3371 62.3991 81.6217C64.9757 81.9063 69.5546 79.3348 69.5546 79.3348C69.5546 79.3348 62.3991 83.0548 65.2603 83.3394C68.1215 83.624 110.76 68.4593 125.071 59.8757" fill="white"/>
<path d="M65.3465 83.599H65.2347C64.7011 83.543 64.3962 83.3601 64.3403 83.0552C64.2539 82.5978 64.8892 81.9575 65.7734 81.307C64.6892 81.7277 63.5307 81.9231 62.3685 81.8812C61.9772 81.8355 61.7535 81.6881 61.7078 81.4289C61.5655 80.6666 64.0659 79.0556 66.3884 77.7394C64.4216 78.3136 61.9975 78.7914 60.8388 78.1307C60.7065 78.0755 60.595 77.9799 60.5202 77.8577C60.4453 77.7354 60.411 77.5926 60.4221 77.4497C60.5186 76.6467 62.5819 75.7066 64.569 74.9849C62.4854 75.2441 60.2543 75.3305 59.8783 74.5885C59.8444 74.5234 59.8268 74.451 59.8268 74.3776C59.8268 74.3042 59.8444 74.2319 59.8783 74.1667C60.3865 73.1503 66.5611 71.9967 69.3207 71.5342C68.228 71.1226 66.6374 70.3145 66.429 69.0796C66.4079 68.9755 66.4116 68.8678 66.4398 68.7654C66.4681 68.663 66.5201 68.5687 66.5916 68.4901C67.0998 67.926 68.6549 68.0175 71.0232 68.1547C73.5235 68.297 76.6134 68.4748 79.5101 67.9311C85.4155 66.8029 124.552 46.9728 124.943 46.7746C125.004 46.7442 125.074 46.7389 125.139 46.7598C125.204 46.7807 125.258 46.8262 125.289 46.8864C125.319 46.9464 125.324 47.0159 125.303 47.0797C125.282 47.1435 125.237 47.1964 125.177 47.2269C123.561 48.0451 85.5832 67.2907 79.6067 68.4291C76.6693 68.9881 73.5083 68.8052 70.9673 68.6629C69.0717 68.5511 67.2828 68.4494 66.9423 68.8255C66.9227 68.8482 66.9092 68.8755 66.903 68.9048C66.8968 68.9341 66.898 68.9645 66.9067 68.9932C67.1202 70.2688 69.524 71.1378 70.4387 71.3665C70.5061 71.3699 70.5694 71.3999 70.6147 71.4499C70.66 71.5 70.6835 71.5659 70.6801 71.6333C70.6768 71.7007 70.6467 71.764 70.5967 71.8093C70.5467 71.8546 70.4807 71.8781 70.4133 71.8747C65.7328 72.6116 60.5339 73.7906 60.3001 74.4157C60.5999 74.9748 64.4013 74.6241 67.7503 73.9533C67.7837 73.9453 67.8183 73.9439 67.8522 73.9493C67.8861 73.9546 67.9186 73.9666 67.9479 73.9846C67.9771 74.0025 68.0026 74.026 68.0227 74.0538C68.0429 74.0816 68.0574 74.113 68.0654 74.1464C68.0734 74.1798 68.0748 74.2144 68.0694 74.2483C68.064 74.2822 68.0521 74.3147 68.0341 74.3439C68.0162 74.3732 67.9927 74.3986 67.9649 74.4188C67.9371 74.439 67.9057 74.4535 67.8723 74.4615C64.5741 75.4169 60.9709 76.8653 60.8896 77.5412C60.8896 77.6072 60.9912 77.6784 61.0573 77.7191C62.6124 78.6084 67.4149 76.9771 69.1326 76.2707C69.1942 76.2464 69.2627 76.2465 69.3241 76.2711C69.3855 76.2957 69.4352 76.3428 69.463 76.4028C69.4896 76.4624 69.4923 76.5298 69.4706 76.5913C69.4488 76.6528 69.4042 76.7036 69.3461 76.7331C65.9259 78.4966 62.2313 80.7581 62.1703 81.3629C62.2421 81.3827 62.3151 81.3979 62.3888 81.4086C64.3098 81.622 67.4708 80.133 68.7972 79.4622L69.3969 79.142C69.4563 79.1115 69.5253 79.1056 69.589 79.1256C69.6528 79.1455 69.7061 79.1898 69.7374 79.2487C69.7536 79.2774 69.7639 79.309 69.7678 79.3417C69.7717 79.3743 69.7691 79.4075 69.7601 79.4391C69.7512 79.4708 69.736 79.5004 69.7155 79.5261C69.695 79.5519 69.6697 79.5733 69.6408 79.5892C69.6002 79.5892 69.3664 79.7468 69.0005 79.9348C66.6272 81.2257 64.7265 82.5978 64.8028 82.984C64.8028 82.984 64.8942 83.0806 65.25 83.1162H65.377C66.9016 83.1162 77.3249 79.8027 90.7872 74.7207C98.1459 71.9459 116.197 64.9276 124.943 59.6829C124.972 59.6621 125.004 59.6474 125.039 59.6398C125.073 59.6321 125.108 59.6316 125.143 59.6384C125.177 59.6452 125.21 59.6591 125.239 59.6792C125.268 59.6993 125.292 59.7251 125.311 59.7552C125.329 59.7852 125.341 59.8186 125.346 59.8535C125.35 59.8883 125.348 59.9238 125.338 59.9576C125.328 59.9914 125.312 60.0229 125.289 60.05C125.267 60.077 125.239 60.0992 125.208 60.1149C111.405 68.3681 69.3664 83.599 65.3465 83.599Z" fill="#1E293B"/>
<path d="M117.773 63.9263C117.773 63.9263 111.674 49.6204 112.238 49.4272C112.802 49.2341 124.435 41.606 125.406 42.1803C126.376 42.7545 129.98 53.8181 128.836 57.0604C127.693 60.3028 117.773 63.9263 117.773 63.9263Z" fill="#F4B733"/>
<path d="M119.297 63.9976C119.243 63.9974 119.189 63.9802 119.144 63.9484C119.1 63.9165 119.066 63.8715 119.048 63.8197C119.027 63.7537 119.033 63.682 119.065 63.6202C119.096 63.5585 119.15 63.5115 119.216 63.4894C119.302 63.4589 127.769 60.6028 131.113 56.3237C131.134 56.2969 131.161 56.2746 131.191 56.258C131.221 56.2414 131.254 56.2309 131.288 56.2271C131.322 56.2234 131.356 56.2264 131.389 56.236C131.422 56.2456 131.452 56.2616 131.479 56.2831C131.507 56.3035 131.53 56.3294 131.548 56.3592C131.565 56.3889 131.576 56.422 131.58 56.4562C131.585 56.4904 131.582 56.5252 131.572 56.5583C131.563 56.5915 131.547 56.6223 131.525 56.649C128.084 61.05 119.734 63.8705 119.384 63.9874C119.356 63.9957 119.327 63.9992 119.297 63.9976Z" fill="#1E293B"/>
<path d="M126.062 32.9104C126 32.9091 125.94 32.8856 125.894 32.8442C125.848 32.8028 125.818 32.7462 125.81 32.6847C125.802 32.6233 125.816 32.561 125.85 32.5091C125.884 32.4573 125.936 32.4194 125.995 32.4022C126.944 32.1192 127.817 31.6265 128.55 30.9606C129.283 30.2947 129.857 29.4726 130.229 28.5551C130.969 26.6799 131.146 24.6292 130.737 22.6549C130.453 20.7464 129.623 18.9605 128.348 17.5119C127.71 16.8107 126.921 16.2634 126.041 15.9113C125.161 15.5591 124.212 15.4114 123.266 15.4791L122.895 15.5299C122.618 15.5764 122.338 15.6018 122.057 15.6061C121.714 15.5896 121.374 15.5403 121.04 15.4588L120.822 15.413C119.031 15.0548 117.178 15.1549 115.436 15.704C113.693 16.2531 112.118 17.2334 110.856 18.5539C109.594 19.8745 108.685 21.4924 108.215 23.2577C107.745 25.023 107.729 26.8784 108.168 28.6517C108.29 29.1599 108.584 29.9679 109.21 30.0442C109.244 30.0473 109.277 30.0573 109.308 30.0738C109.338 30.0902 109.365 30.1127 109.386 30.1398C109.408 30.1669 109.423 30.1981 109.432 30.2315C109.441 30.2648 109.443 30.2997 109.438 30.3338C109.434 30.368 109.424 30.401 109.407 30.431C109.391 30.4611 109.368 30.4875 109.341 30.5088C109.314 30.5301 109.283 30.5458 109.25 30.555C109.217 30.5642 109.183 30.5668 109.149 30.5625C108.452 30.4761 107.924 29.846 107.66 28.7787C107.195 26.9173 107.209 24.9686 107.7 23.1141C108.191 21.2595 109.143 19.5593 110.468 18.1716C111.793 16.7839 113.447 15.7539 115.277 15.1774C117.107 14.6009 119.053 14.4967 120.934 14.8743L121.162 14.9201C121.469 14.9973 121.782 15.0433 122.098 15.0573C122.35 15.0506 122.601 15.0268 122.85 14.9861C122.982 14.9861 123.109 14.9455 123.241 14.9353C124.266 14.8529 125.296 15.0086 126.251 15.3903C127.206 15.7721 128.059 16.3695 128.745 17.1358C130.098 18.656 130.98 20.5362 131.286 22.5482C131.711 24.6246 131.518 26.7801 130.732 28.7483C130.33 29.7386 129.71 30.6258 128.918 31.3437C128.126 32.0616 127.183 32.5919 126.158 32.8952L126.062 32.9104Z" fill="#1E293B"/>
<path d="M122.092 15.3319C122.092 15.3319 124.735 13.3702 129.029 14.4171C133.324 15.464 134.945 23.2903 130.935 27.4881C130.935 27.4881 131.56 16.0485 122.092 15.3319Z" fill="#1E293B"/>
<path d="M137.374 39.8681H137.349C135.316 39.7429 133.368 39.0079 131.758 37.759C130.952 37.1226 130.303 36.3087 129.862 35.3805C129.421 34.4524 129.201 33.435 129.217 32.4076C129.218 32.3729 129.226 32.3387 129.24 32.3071C129.254 32.2754 129.275 32.2471 129.301 32.2237C129.326 32.2004 129.357 32.1826 129.39 32.1714C129.422 32.1602 129.457 32.1558 129.492 32.1586C129.526 32.1599 129.56 32.1681 129.592 32.1827C129.623 32.1972 129.651 32.2179 129.674 32.2435C129.697 32.269 129.715 32.299 129.727 32.3315C129.738 32.3641 129.743 32.3986 129.741 32.4331C129.727 33.3775 129.93 34.3126 130.335 35.1657C130.741 36.0188 131.337 36.7671 132.079 37.3525C133.32 38.3289 134.792 38.9695 136.353 39.2125C135.924 38.7323 135.651 38.1333 135.57 37.4948C135.487 36.5319 135.635 35.5631 136.002 34.6691C136.615 33.1507 137.361 31.6897 138.233 30.3037C139.498 28.1438 140.693 26.1059 140.957 23.7377C141.112 22.3698 140.929 20.9848 140.425 19.7037C139.921 18.4226 139.111 17.2844 138.066 16.3886C137.021 15.4927 135.772 14.8664 134.429 14.5644C133.086 14.2624 131.689 14.2939 130.361 14.6561C130.294 14.6735 130.222 14.6642 130.161 14.6301C130.101 14.596 130.056 14.5398 130.036 14.4732C130.026 14.4401 130.024 14.4056 130.028 14.3716C130.032 14.3375 130.043 14.3047 130.06 14.2749C130.077 14.2451 130.1 14.219 130.127 14.1981C130.154 14.1772 130.185 14.1618 130.219 14.153C131.631 13.7676 133.115 13.7339 134.543 14.0549C135.971 14.3759 137.299 15.0419 138.41 15.9946C139.521 16.9472 140.382 18.1576 140.917 19.5198C141.452 20.882 141.646 22.3546 141.48 23.8089C141.201 26.2838 139.92 28.464 138.685 30.5781C137.842 31.9338 137.12 33.3605 136.525 34.8419C136.18 35.6542 136.04 36.5393 136.119 37.4185C136.158 37.8317 136.304 38.2277 136.542 38.5679C136.779 38.9081 137.101 39.181 137.476 39.3599C137.532 39.3832 137.578 39.4251 137.607 39.4785C137.636 39.5319 137.645 39.5936 137.634 39.6532C137.622 39.7128 137.591 39.7667 137.545 39.8058C137.498 39.8449 137.44 39.8669 137.379 39.8681H137.374Z" fill="#1E293B"/>
<path d="M114.053 51.5516C113.988 51.563 113.921 51.5497 113.865 51.5143C113.81 51.4788 113.769 51.4239 113.752 51.3602C113.735 51.2965 113.742 51.2286 113.772 51.17C113.803 51.1114 113.854 51.0662 113.916 51.0434L124.359 44.6044C124.419 44.5686 124.49 44.5575 124.557 44.5737C124.625 44.5898 124.683 44.6319 124.72 44.6908C124.738 44.7201 124.751 44.7527 124.756 44.7868C124.762 44.8209 124.761 44.8558 124.753 44.8895C124.745 44.9231 124.73 44.9547 124.71 44.9826C124.689 45.0105 124.663 45.0339 124.634 45.0517L114.19 51.4906C114.151 51.5235 114.103 51.5447 114.053 51.5516Z" fill="#1E293B"/>
<path d="M0.449107 70.5431C0.387106 70.5431 0.327644 70.5185 0.283803 70.4747C0.239962 70.4308 0.215332 70.3714 0.215332 70.3094C0.215332 70.2474 0.239962 70.1879 0.283803 70.1441C0.327644 70.1002 0.387106 70.0756 0.449107 70.0756L16.2034 69.2167C16.2348 69.2131 16.2666 69.2162 16.2968 69.2259C16.3269 69.2355 16.3547 69.2514 16.3782 69.2725C16.4017 69.2936 16.4205 69.3195 16.4333 69.3485C16.4461 69.3774 16.4526 69.4087 16.4524 69.4403C16.4552 69.5015 16.4339 69.5613 16.393 69.607C16.3521 69.6526 16.295 69.6803 16.2339 69.6843L0.479598 70.5431H0.449107Z" fill="#E2E8F0"/>
<path d="M38.2237 118.909C38.1788 118.91 38.1346 118.897 38.0967 118.873C38.0448 118.839 38.0084 118.786 37.9951 118.725C37.9818 118.664 37.9927 118.601 38.0255 118.548L45.7553 106.529C45.7709 106.501 45.7921 106.477 45.8176 106.457C45.843 106.438 45.8721 106.424 45.9032 106.416C45.9342 106.409 45.9665 106.407 45.998 106.413C46.0295 106.418 46.0596 106.43 46.0864 106.447C46.1132 106.465 46.1362 106.487 46.1539 106.514C46.1716 106.541 46.1836 106.571 46.1892 106.602C46.1949 106.634 46.194 106.666 46.1867 106.697C46.1793 106.728 46.1657 106.757 46.1466 106.783L38.4422 118.802C38.4191 118.838 38.3865 118.867 38.3479 118.886C38.3094 118.905 38.2664 118.913 38.2237 118.909Z" fill="#E2E8F0"/>
<path d="M9.03256 99.4495C8.99088 99.4491 8.95006 99.4376 8.91432 99.4162C8.87857 99.3948 8.84922 99.3641 8.82928 99.3275C8.81415 99.3009 8.80451 99.2716 8.80092 99.2412C8.79734 99.2108 8.79989 99.18 8.80842 99.1507C8.81695 99.1213 8.83128 99.0939 8.85058 99.0702C8.86987 99.0464 8.89374 99.0268 8.92076 99.0124L20.6552 92.4261C20.7099 92.3967 20.774 92.3898 20.8338 92.4069C20.8936 92.424 20.9444 92.4637 20.9753 92.5176C20.9908 92.5443 21.0008 92.5738 21.0048 92.6043C21.0088 92.6349 21.0068 92.6659 20.9987 92.6957C20.9907 92.7254 20.9769 92.7533 20.958 92.7777C20.9392 92.8021 20.9157 92.8225 20.8889 92.8378L9.15453 99.4444C9.11504 99.4569 9.07295 99.4586 9.03256 99.4495Z" fill="#E2E8F0"/>
<path d="M96.0319 8.1561C95.9942 8.156 95.9572 8.1468 95.9238 8.12929C95.8905 8.11179 95.8619 8.08649 95.8404 8.05556C95.819 8.02462 95.8053 7.98896 95.8006 7.9516C95.7959 7.91425 95.8003 7.87631 95.8134 7.84101L98.6745 0.136664C98.6991 0.0829196 98.7431 0.0404625 98.7977 0.0178308C98.8522 -0.00480093 98.9133 -0.00592851 98.9687 0.0146757C99.0241 0.0352798 99.0696 0.076087 99.0961 0.12889C99.1226 0.181692 99.1282 0.242573 99.1116 0.299288L96.2504 8.02397C96.2313 8.06523 96.2002 8.09984 96.1613 8.12338C96.1224 8.14691 96.0773 8.15831 96.0319 8.1561Z" fill="#E2E8F0"/>
<path d="M139.244 54.8041C139.189 54.8048 139.136 54.7856 139.094 54.7502C139.052 54.7147 139.024 54.6653 139.016 54.611C139.011 54.5806 139.012 54.5495 139.019 54.5195C139.026 54.4895 139.038 54.4612 139.056 54.4362C139.074 54.4111 139.097 54.3899 139.123 54.3737C139.149 54.3575 139.178 54.3466 139.209 54.3416L151.512 52.3088C151.574 52.2999 151.636 52.3151 151.686 52.3511C151.736 52.3871 151.771 52.4412 151.782 52.5019C151.787 52.5323 151.786 52.5634 151.779 52.5934C151.772 52.6234 151.759 52.6517 151.741 52.6768C151.723 52.7018 151.701 52.723 151.674 52.7392C151.648 52.7555 151.619 52.7664 151.589 52.7713L139.28 54.7787L139.244 54.8041Z" fill="#E2E8F0"/>
<path d="M138.96 105.746C138.924 105.747 138.889 105.739 138.857 105.723C138.825 105.707 138.798 105.684 138.777 105.655L131.047 95.9278C131.01 95.8783 130.993 95.8161 131 95.7544C131.008 95.6927 131.039 95.6365 131.088 95.5975C131.111 95.5781 131.138 95.5637 131.168 95.555C131.197 95.5463 131.228 95.5435 131.258 95.5468C131.288 95.5501 131.317 95.5595 131.344 95.5743C131.371 95.5891 131.394 95.6091 131.413 95.6331L139.143 105.365C139.162 105.389 139.176 105.417 139.185 105.447C139.193 105.477 139.195 105.508 139.191 105.539C139.188 105.57 139.178 105.599 139.162 105.626C139.147 105.653 139.127 105.677 139.102 105.695C139.061 105.727 139.011 105.745 138.96 105.746Z" fill="#E2E8F0"/>
<path d="M18.663 23.1226C18.6071 23.1232 18.5528 23.1033 18.5106 23.0667L12.9864 18.3201C12.9439 18.2756 12.9201 18.2165 12.9201 18.1549C12.9201 18.0934 12.9439 18.0342 12.9864 17.9897C13.006 17.9657 13.0302 17.9459 13.0577 17.9316C13.0852 17.9172 13.1152 17.9086 13.1461 17.9062C13.177 17.9038 13.2081 17.9078 13.2374 17.9178C13.2667 17.9277 13.2937 17.9436 13.3167 17.9643L18.8409 22.7109C18.8649 22.7305 18.8847 22.7548 18.8991 22.7822C18.9134 22.8097 18.9221 22.8398 18.9244 22.8707C18.9268 22.9016 18.9229 22.9326 18.9129 22.9619C18.9029 22.9913 18.8871 23.0183 18.8663 23.0413C18.8423 23.0711 18.8109 23.0943 18.7753 23.1085C18.7397 23.1228 18.7011 23.1276 18.663 23.1226Z" fill="#E2E8F0"/>
<path d="M115.923 82.0081C115.88 82.0083 115.838 81.9978 115.801 81.9776C115.772 81.9622 115.746 81.941 115.725 81.9155C115.704 81.8899 115.688 81.8604 115.679 81.8287C115.669 81.797 115.666 81.7637 115.67 81.7308C115.673 81.6979 115.683 81.6661 115.699 81.6371L121.234 71.5239C121.26 71.4744 121.303 71.4354 121.355 71.4133C121.406 71.3911 121.464 71.3871 121.518 71.4019C121.573 71.4148 121.621 71.446 121.656 71.4905C121.69 71.5349 121.708 71.5898 121.706 71.6459V80.6106C121.706 80.6779 121.679 80.7426 121.632 80.7902C121.584 80.8379 121.52 80.8647 121.452 80.8647C121.385 80.8647 121.32 80.8379 121.272 80.7902C121.225 80.7426 121.198 80.6779 121.198 80.6106V72.6369L116.116 81.8811C116.096 81.916 116.068 81.9457 116.035 81.9678C116.001 81.9899 115.963 82.0037 115.923 82.0081Z" fill="white"/>
</svg>
