<svg width="256" height="256" viewBox="0 0 256 256" fill="none" xmlns="http://www.w3.org/2000/svg">
<path d="M247.31 124.76C246.96 123.97 238.49 105.18 219.66 86.35C194.57 61.26 162.88 48 128 48C93.1199 48 61.4299 61.26 36.3399 86.35C17.5099 105.18 8.9999 124 8.6899 124.76C8.23504 125.783 8 126.89 8 128.01C8 129.13 8.23504 130.237 8.6899 131.26C9.0399 132.05 17.5099 150.83 36.3399 169.66C61.4299 194.74 93.1199 208 128 208C162.88 208 194.57 194.74 219.66 169.66C238.49 150.83 246.96 132.05 247.31 131.26C247.765 130.237 248 129.13 248 128.01C248 126.89 247.765 125.783 247.31 124.76ZM128 192C97.2199 192 70.3299 180.81 48.0699 158.75C38.9364 149.667 31.1658 139.31 24.9999 128C31.1641 116.689 38.9349 106.332 48.0699 97.25C70.3299 75.19 97.2199 64 128 64C158.78 64 185.67 75.19 207.93 97.25C217.081 106.33 224.869 116.687 231.05 128C223.84 141.46 192.43 192 128 192ZM128 80C118.506 80 109.226 82.8152 101.333 88.0895C93.439 93.3638 87.2867 100.86 83.6537 109.631C80.0207 118.402 79.0701 128.053 80.9222 137.364C82.7743 146.675 87.3459 155.228 94.0588 161.941C100.772 168.654 109.324 173.226 118.636 175.078C127.947 176.93 137.598 175.979 146.369 172.346C155.14 168.713 162.636 162.561 167.91 154.667C173.185 146.774 176 137.494 176 128C175.987 115.274 170.925 103.072 161.926 94.0735C152.928 85.0746 140.726 80.0132 128 80ZM128 160C121.671 160 115.484 158.123 110.222 154.607C104.959 151.091 100.858 146.093 98.4358 140.246C96.0138 134.399 95.38 127.965 96.6148 121.757C97.8495 115.55 100.897 109.848 105.372 105.373C109.848 100.897 115.55 97.8496 121.757 96.6149C127.964 95.3801 134.399 96.0138 140.246 98.4359C146.093 100.858 151.091 104.959 154.607 110.222C158.123 115.484 160 121.671 160 128C160 136.487 156.628 144.626 150.627 150.627C144.626 156.629 136.487 160 128 160Z" fill="#808D9E"/>
</svg>
