<svg width="24" height="24" viewBox="0 0 24 24" fill="none" xmlns="http://www.w3.org/2000/svg">
<path d="M1.63636 21.0028H5.45456V11.7301L2.95434 7.36426L0 7.63918V19.3665C0 20.2705 0.732281 21.0028 1.63636 21.0028Z" fill="#0085F7"/>
<path d="M18.5454 21.0028H22.3636C23.2677 21.0028 24 20.2705 24 19.3665V7.63918L21.0499 7.36426L18.5455 11.7301V21.0028H18.5454Z" fill="#00A94B"/>
<path d="M18.5453 4.63881L16.3025 8.91863L18.5453 11.7297L23.9999 7.6388V5.45701C23.9999 3.43473 21.6912 2.27973 20.0726 3.49337L18.5453 4.63881Z" fill="#FFBC00"/>
<path fill-rule="evenodd" clip-rule="evenodd" d="M5.45455 11.7296L3.31738 7.21506L5.45455 4.63867L12 9.54775L18.5454 4.63867V11.7296L12 16.6387L5.45455 11.7296Z" fill="#FF4131"/>
<path d="M0 5.45701V7.6388L5.45456 11.7297V4.63881L3.92728 3.49337C2.30864 2.27973 0 3.43473 0 5.45701Z" fill="#E51C19"/>
</svg>
