<svg width="262" height="116" viewBox="0 0 262 116" fill="none" xmlns="http://www.w3.org/2000/svg">
<g clip-path="url(#clip0_636_4283)">
<path d="M3.73546 37.4069C6.18545 33.5307 9.82404 30.6856 14.4087 29.1024L16.1491 35.9025C9.19032 38.511 6.50382 46.0269 6.97684 50.0579C7.37102 52.9059 9.50566 55.5144 11.4038 55.5144H42.8716C45.7188 55.5144 48.8025 52.4298 48.8025 49.5817C48.8025 46.8125 45.7188 43.4124 42.8716 43.4124H30.9339C29.3542 43.4124 28.0079 42.4631 27.2984 40.804C26.4282 38.5898 26.7435 34.7924 27.2984 32.2628C27.9321 29.3359 29.3542 25.1442 32.6744 22.0596C35.2032 19.6877 38.3658 18.2622 41.9255 18.0256C45.3246 17.789 49.1209 18.4987 53.2325 20.1609L50.3064 26.4879C45.0092 24.4314 40.8188 24.4314 38.0504 26.5667C35.3609 28.702 34.333 32.2598 34.0177 34.2374L33.6235 36.4515H42.7958C49.4362 36.4515 55.6825 42.9362 55.6825 49.5787C55.6825 56.3 49.4362 62.4692 42.7958 62.4692H11.2461C8.63847 62.4692 6.18545 61.3622 4.44802 59.6212C2.47105 57.7225 0.49408 54.0858 0.0998995 50.8435C-0.454986 46.6608 1.36431 41.2043 3.73546 37.4069Z" fill="white"/>
<path d="M24.8455 69.2785C24.8455 71.5715 23.0262 73.4702 20.7339 73.4702C18.4416 73.4702 16.5435 71.5715 16.5435 69.2785C16.5435 66.9855 18.4416 65.0868 20.7339 65.0868C23.0292 65.0868 24.8455 66.9855 24.8455 69.2785Z" fill="#FBAF43"/>
<path d="M36.865 69.2785C36.865 71.5715 35.0457 73.4702 32.7534 73.4702C30.4611 73.4702 28.563 71.5715 28.563 69.2785C28.563 66.9855 30.4611 65.0868 32.7534 65.0868C35.0457 65.0868 36.865 66.9855 36.865 69.2785Z" fill="#FBAF43"/>
<path d="M99.3216 29.4208V43.103H113.633V49.8243H62.5566V43.103H92.3628V30.9222C92.3628 26.8882 89.1214 23.567 85.0098 23.567H69.6701V16.688H86.5107C93.5484 16.688 99.3216 22.3811 99.3216 29.4208Z" fill="white"/>
<path d="M126.044 14.4738H133.081V42.3903C133.081 46.5031 129.761 49.8243 125.65 49.8243H109.837V43.1031H126.044V14.4738Z" fill="white"/>
<path d="M120.983 58.05C120.983 60.3431 119.085 62.2418 116.793 62.2418C114.501 62.2418 112.603 60.3431 112.603 58.05C112.603 55.757 114.501 53.8583 116.793 53.8583C119.085 53.8583 120.983 55.757 120.983 58.05Z" fill="#FBAF43"/>
<path d="M132.051 58.05C132.051 60.3431 130.153 62.2418 127.86 62.2418C125.568 62.2418 123.67 60.3431 123.67 58.05C123.67 55.757 125.568 53.8583 127.86 53.8583C130.153 53.8583 132.051 55.757 132.051 58.05Z" fill="#FBAF43"/>
<path d="M151.184 0V43.103H165.256V49.8243H151.499C147.388 49.8243 144.067 46.5031 144.067 42.3903V0H151.184Z" fill="white"/>
<path d="M196.327 49.8243H160.514V43.1031H175.929V14.4738H183.046V43.1031H196.327V49.8243Z" fill="white"/>
<path d="M183.597 4.90448C183.597 7.19748 181.778 9.09619 179.486 9.09619C177.194 9.09619 175.295 7.19748 175.295 4.90448C175.295 2.61147 177.194 0.712769 179.486 0.712769C181.781 0.712769 183.597 2.60844 183.597 4.90448Z" fill="#FBAF43"/>
<path d="M260.208 37.962C260.208 44.5256 254.911 49.8243 248.271 49.8243H243.686C240.287 49.8243 237.124 48.4018 235.781 46.9763L234.596 46.0269L233.41 46.9763C232.067 48.3988 228.904 49.8243 225.344 49.8243H191.979V43.103H208.819V14.8681H216.172V43.103H225.581C228.586 43.103 231.036 40.6523 231.036 37.6465V14.7893H238.152V37.8043C238.152 40.7312 240.523 43.103 243.607 43.103H247.482C250.487 43.103 252.858 40.6523 252.858 37.7254V14.7893H260.211V37.962H260.208Z" fill="white"/>
<path d="M15.2458 85.5267C13.8631 85.5267 12.7624 85.8724 11.9498 86.564C11.1342 87.2555 10.7279 88.1715 10.7279 89.312C10.7279 90.6162 11.2251 91.6019 12.2227 92.2722C13.2203 92.9425 15.2246 93.7281 18.2355 94.6229C22.3046 95.9271 25.1943 97.3921 26.9044 99.0208C28.6146 100.65 29.4696 102.909 29.4696 105.8C29.4696 108.893 28.3296 111.356 26.0524 113.188C23.7722 115.02 20.7825 115.936 17.0772 115.936C15.4914 115.936 13.6903 115.721 11.6739 115.296C9.66053 114.869 8.3658 114.656 7.79879 114.656C6.86185 114.656 5.82485 115.105 4.68476 116L4.01465 104.826H4.13594C7.71692 111.544 12.0317 114.902 17.0772 114.902C18.6236 114.902 19.8759 114.526 20.831 113.774C21.7861 113.022 22.2652 111.933 22.2652 110.507C22.2652 109.897 22.1439 109.358 21.8983 108.887C21.6527 108.42 21.3798 108.032 21.0736 107.726C20.7673 107.419 20.2397 107.095 19.4878 106.749C18.7328 106.403 18.093 106.149 17.5654 105.985C17.0348 105.824 16.1827 105.557 15.0002 105.19C11.1736 104.01 8.41735 102.563 6.72843 100.856C5.03952 99.1452 4.19355 96.8461 4.19355 93.9556C4.19355 91.147 5.23964 88.8661 7.3379 87.116C9.43312 85.3659 12.0681 84.4894 15.2427 84.4894C16.6679 84.4894 18.2658 84.732 20.0336 85.2234C21.8043 85.7117 22.993 85.9574 23.6054 85.9574C24.6637 85.9574 25.8038 85.4478 27.0227 84.4317V94.3256H26.9014C25.5582 91.6808 23.8177 89.5516 21.6831 87.944C19.5514 86.3304 17.4047 85.5267 15.2458 85.5267Z" fill="#FBAF43"/>
<path d="M66.832 112.946V113.067C65.1612 114.938 62.7022 115.876 59.4456 115.876C54.7245 115.876 52.0593 114.065 51.4468 110.44C51.4468 110.358 51.4255 110.104 51.3861 109.676C51.3437 109.248 51.3255 108.972 51.3255 108.851C50.8373 110.929 49.7184 112.597 47.9689 113.859C46.2193 115.12 44.0604 115.751 41.4982 115.751C38.933 115.751 36.7863 115.099 35.0579 113.798C33.3266 112.497 32.4624 110.601 32.4624 108.12C32.4624 106.776 32.7383 105.597 33.2872 104.577C33.836 103.561 34.4879 102.758 35.2399 102.166C35.9918 101.578 37.0925 101.026 38.5358 100.516C39.9791 100.007 41.2102 99.6305 42.229 99.3878C43.2448 99.1422 44.6911 98.8601 46.562 98.5325L51.2012 97.6772V91.7536C51.2012 90.0035 50.8343 88.5385 50.1035 87.3556C49.3697 86.1758 48.1902 85.5843 46.562 85.5843C45.1793 85.5843 44.1089 86.012 43.357 86.8673C42.602 87.7226 42.229 88.8418 42.229 90.2249C42.229 92.709 43.2054 93.9495 45.1581 93.9495C45.4825 93.9495 45.8706 93.8889 46.3194 93.7675C45.0974 96.1697 42.9203 97.3708 39.7881 97.3708C38.1598 97.3708 36.7863 96.9037 35.6674 95.9665C34.5485 95.0293 33.9876 93.7888 33.9876 92.2419C33.9876 89.9216 35.1792 88.0502 37.5595 86.6247C39.9397 85.1991 43.0447 84.4863 46.8682 84.4863C51.9956 84.4863 55.8131 85.3326 58.3146 87.022C60.8162 88.7114 62.0684 91.429 62.0684 95.1749C62.0684 96.3548 62.0472 98.2504 62.0078 100.853C61.9653 103.458 61.9471 105.515 61.9471 107.019C61.9471 109.218 62.1806 110.795 62.6506 111.751C63.1176 112.709 64.0454 113.185 65.4281 113.185C65.9981 113.191 66.4651 113.109 66.832 112.946ZM51.2042 98.7782L48.639 99.3878C44.9337 100.122 43.0841 102.482 43.0841 106.473C43.0841 108.059 43.3903 109.303 43.9998 110.198C44.6092 111.092 45.4855 111.541 46.6256 111.541C48.0083 111.541 49.109 110.941 49.9216 109.74C50.7342 108.539 51.1436 107.043 51.1436 105.251L51.2042 98.7782Z" fill="white"/>
<path d="M66.5259 85.099H80.6891V93.0366C81.4229 90.3098 82.7146 88.2018 84.5642 86.7156C86.4169 85.2294 88.6425 84.4863 91.2501 84.4863C94.4248 84.4863 96.8354 85.463 98.4849 87.4163C100.134 89.3696 100.956 91.9143 100.956 95.0505V108.669C100.956 110.744 101.108 112.151 101.414 112.882C101.72 113.616 102.524 114.389 103.825 115.202V115.324H87.1597V115.202C88.4605 114.389 89.2671 113.613 89.5703 112.882C89.8735 112.151 90.0282 110.744 90.0282 108.669V94.7442C90.0282 93.2398 89.6825 92.0175 88.9912 91.0802C88.2998 90.143 87.2598 89.6759 85.8771 89.6759C84.2913 89.6759 83.0269 90.3584 82.093 91.7233C81.1561 93.0881 80.6891 95.093 80.6891 97.7378V108.669C80.6891 110.744 80.8407 112.151 81.147 112.882C81.4532 113.616 82.2567 114.389 83.5575 115.202V115.324H66.8928V115.202C68.1936 114.389 69.0001 113.613 69.3033 112.882C69.6096 112.148 69.7612 110.744 69.7612 108.669V91.8749C69.7612 89.7972 69.5793 88.3747 69.2124 87.6013C68.8455 86.8279 67.951 86.0332 66.5259 85.2203V85.099Z" fill="white"/>
<path d="M140.334 112.946V113.067C138.664 114.938 136.205 115.876 132.948 115.876C128.227 115.876 125.562 114.065 124.949 110.44C124.949 110.358 124.928 110.104 124.889 109.676C124.846 109.248 124.828 108.972 124.828 108.851C124.34 110.929 123.221 112.597 121.471 113.859C119.722 115.12 117.563 115.751 115.001 115.751C112.435 115.751 110.289 115.099 108.56 113.798C106.829 112.497 105.965 110.601 105.965 108.12C105.965 106.776 106.241 105.597 106.79 104.577C107.338 103.561 107.99 102.758 108.742 102.166C109.494 101.578 110.595 101.026 112.038 100.516C113.482 100.007 114.713 99.6305 115.731 99.3878C116.747 99.1422 118.194 98.8601 120.064 98.5325L124.704 97.6772V91.7536C124.704 90.0035 124.337 88.5385 123.606 87.3556C122.872 86.1758 121.693 85.5843 120.064 85.5843C118.682 85.5843 117.611 86.012 116.859 86.8673C116.104 87.7226 115.731 88.8418 115.731 90.2249C115.731 92.709 116.708 93.9495 118.661 93.9495C118.985 93.9495 119.373 93.8889 119.822 93.7675C118.6 96.1697 116.423 97.3708 113.291 97.3708C111.662 97.3708 110.289 96.9037 109.17 95.9665C108.051 95.0293 107.49 93.7888 107.49 92.2419C107.49 89.9216 108.682 88.0502 111.062 86.6247C113.442 85.1991 116.547 84.4863 120.371 84.4863C125.498 84.4863 129.316 85.3326 131.817 87.022C134.319 88.7114 135.571 91.429 135.571 95.1749C135.571 96.3548 135.55 98.2504 135.51 100.853C135.468 103.458 135.45 105.515 135.45 107.019C135.45 109.218 135.683 110.795 136.153 111.751C136.62 112.709 137.548 113.185 138.931 113.185C139.498 113.191 139.968 113.109 140.334 112.946ZM124.704 98.7782L122.138 99.3878C118.433 100.122 116.583 102.482 116.583 106.473C116.583 108.059 116.89 109.303 117.499 110.198C118.109 111.092 118.985 111.541 120.125 111.541C121.508 111.541 122.608 110.941 123.421 109.74C124.234 108.539 124.643 107.043 124.643 105.251L124.704 98.7782Z" fill="white"/>
<path d="M154.192 85.099V108.672C154.192 110.747 154.343 112.154 154.649 112.885C154.956 113.619 155.759 114.392 157.06 115.205V115.327H140.395V115.205C141.696 114.392 142.503 113.616 142.806 112.885C143.112 112.151 143.264 110.747 143.264 108.672V91.878C143.264 89.8003 143.082 88.3778 142.715 87.6043C142.348 86.8309 141.453 86.0362 140.028 85.2234V85.1021H154.192V85.099ZM144.21 79.7578C143.048 78.6386 142.469 77.2434 142.469 75.5752C142.469 73.907 143.048 72.5209 144.21 71.4229C145.371 70.3249 146.823 69.7729 148.576 69.7729C150.326 69.7729 151.802 70.3219 153.003 71.4229C154.204 72.5209 154.804 73.907 154.804 75.5752C154.804 77.2464 154.204 78.6386 153.003 79.7578C151.802 80.877 150.326 81.4381 148.576 81.4381C146.823 81.4351 145.368 80.877 144.21 79.7578Z" fill="white"/>
<path d="M182.273 91.3289V76.3668C182.273 74.3741 182.027 72.9485 181.539 72.0932C181.051 71.2379 180.074 70.4432 178.61 69.7122V69.5909H193.201V108.675C193.201 110.628 193.361 111.993 193.689 112.767C194.013 113.54 194.829 114.353 196.13 115.208V115.33H182.273V107.756C181.581 110.158 180.338 112.124 178.549 113.649C176.757 115.175 174.58 115.939 172.018 115.939C168.394 115.939 165.344 114.526 162.861 111.696C160.377 108.866 159.137 105.154 159.137 100.553C159.137 95.7481 160.45 91.8719 163.076 88.9207C165.702 85.9695 168.946 84.4924 172.812 84.4924C175.214 84.4924 177.227 85.102 178.855 86.3244C180.481 87.5437 181.621 89.2119 182.273 91.3289ZM176.533 111.602C178.119 111.602 179.474 110.838 180.593 109.312C181.712 107.786 182.273 105.842 182.273 103.479V96.5185C182.273 93.8312 181.703 91.6535 180.562 89.9853C179.422 88.3171 178.04 87.483 176.411 87.483C172.585 87.483 170.672 91.8385 170.672 100.553C170.672 104.095 171.181 106.822 172.197 108.736C173.216 110.647 174.662 111.602 176.533 111.602Z" fill="white"/>
<path d="M214.201 84.4894C218.922 84.4894 222.512 85.8239 224.977 88.49C227.44 91.1561 228.671 94.6077 228.671 98.8419H209.256C209.256 102.588 210.15 105.539 211.942 107.695C213.731 109.855 216.114 110.932 219.086 110.932C223.198 110.932 226.148 109.121 227.937 105.496L228.364 105.678C227.47 108.897 225.748 111.408 223.207 113.222C220.663 115.032 217.64 115.939 214.141 115.939C209.623 115.939 205.839 114.526 202.785 111.696C199.732 108.866 198.207 105.051 198.207 100.246C198.207 95.5662 199.753 91.7687 202.846 88.857C205.939 85.9452 209.723 84.4894 214.201 84.4894ZM209.316 97.5559H218.167C218.167 93.5674 217.903 90.5646 217.373 88.5476C216.842 86.5337 215.787 85.5236 214.198 85.5236C212.652 85.5236 211.472 86.6034 210.657 88.7599C209.844 90.9225 209.398 93.8525 209.316 97.5559Z" fill="white"/>
<path d="M247.534 84.4894C252.255 84.4894 255.845 85.8239 258.31 88.49C260.772 91.1561 262.003 94.6077 262.003 98.8419H242.588C242.588 102.588 243.483 105.539 245.275 107.695C247.064 109.855 249.447 110.932 252.419 110.932C256.53 110.932 259.48 109.121 261.269 105.496L261.697 105.678C260.802 108.897 259.08 111.408 256.539 113.222C253.995 115.032 250.972 115.939 247.473 115.939C242.955 115.939 239.171 114.526 236.118 111.696C233.064 108.866 231.539 105.051 231.539 100.246C231.539 95.5662 233.085 91.7687 236.178 88.857C239.271 85.9452 243.055 84.4894 247.534 84.4894ZM242.649 97.5559H251.5C251.5 93.5674 251.236 90.5646 250.705 88.5476C250.175 86.5337 249.12 85.5236 247.531 85.5236C245.984 85.5236 244.805 86.6034 243.989 88.7599C243.176 90.9225 242.731 93.8525 242.649 97.5559Z" fill="white"/>
</g>
<defs>
<clipPath id="clip0_636_4283">
<rect width="262" height="116" fill="white"/>
</clipPath>
</defs>
</svg>
