<svg width="24" height="24" viewBox="0 0 24 24" fill="none" xmlns="http://www.w3.org/2000/svg">
<g clip-path="url(#clip0_1455_17261)">
<path d="M12 24C13.4387 24 14.6776 23.131 15.2212 21.8906H8.77881C9.32242 23.131 10.5614 24 12 24Z" fill="white"/>
<path d="M19.2657 11.6185V10.0781C19.2657 6.80522 17.0902 4.0312 14.1094 3.12516V2.10938C14.1094 0.946266 13.1632 0 12.0001 0C10.8369 0 9.89068 0.946266 9.89068 2.10938V3.12516C6.9099 4.0312 4.73443 6.80517 4.73443 10.0781V11.6185C4.73443 14.4935 3.63859 17.2195 1.64879 19.2946C1.45379 19.4979 1.39899 19.798 1.50952 20.0571C1.62005 20.3162 1.87459 20.4844 2.1563 20.4844H21.8438C22.1255 20.4844 22.38 20.3162 22.4905 20.0571C22.6011 19.798 22.5463 19.4979 22.3513 19.2946C20.3615 17.2195 19.2657 14.4934 19.2657 11.6185ZM12.7032 2.84663C12.4718 2.82431 12.2372 2.8125 12.0001 2.8125C11.7629 2.8125 11.5284 2.82431 11.2969 2.84663V2.10938C11.2969 1.72167 11.6124 1.40625 12.0001 1.40625C12.3878 1.40625 12.7032 1.72167 12.7032 2.10938V2.84663Z" fill="white"/>
<path d="M21.1405 10.0778C21.1405 10.4661 21.4553 10.7809 21.8436 10.7809C22.2319 10.7809 22.5467 10.4661 22.5467 10.0778C22.5467 7.26061 21.4497 4.61204 19.4576 2.61999C19.1831 2.34544 18.7379 2.3454 18.4633 2.61999C18.1887 2.89458 18.1887 3.33976 18.4633 3.61435C20.1897 5.3408 21.1405 7.63622 21.1405 10.0778Z" fill="white"/>
<path d="M2.15625 10.7809C2.54456 10.7809 2.85938 10.4661 2.85938 10.0778C2.85938 7.63624 3.81019 5.34082 5.53659 3.61437C5.81119 3.33977 5.81119 2.8946 5.53659 2.62001C5.26205 2.34541 4.81683 2.34541 4.54223 2.62001C2.55019 4.61205 1.45312 7.26059 1.45312 10.0778C1.45312 10.4661 1.76794 10.7809 2.15625 10.7809Z" fill="white"/>
</g>
<defs>
<clipPath id="clip0_1455_17261">
<rect width="24" height="24" fill="white"/>
</clipPath>
</defs>
</svg>
