<svg width="100" height="75" viewBox="0 0 100 75" fill="none" xmlns="http://www.w3.org/2000/svg">
<g clip-path="url(#clip0_1673_8729)">
<path d="M100 65.2739H0V65.3138H100V65.2739Z" fill="#EBEBEB"/>
<path d="M89.9801 68.4839H72.6001V68.5238H89.9801V68.4839Z" fill="#EBEBEB"/>
<path d="M73.28 66.6499H71.54V66.6898H73.28V66.6499Z" fill="#EBEBEB"/>
<path d="M59.86 68.2847H56.02V68.3245H59.86V68.2847Z" fill="#EBEBEB"/>
<path d="M14.82 66.9688H10.5V67.0086H14.82V66.9688Z" fill="#EBEBEB"/>
<path d="M22.1801 66.9688H16.6001V67.0086H22.1801V66.9688Z" fill="#EBEBEB"/>
<path d="M50.9 67.7861H41.54V67.826H50.9V67.7861Z" fill="#EBEBEB"/>
<path d="M47.3999 56.3822H8.77989C8.15989 56.3822 7.63989 55.8638 7.63989 55.2458V1.13642C7.63989 0.518365 8.15989 0 8.77989 0H47.3999C48.0199 0 48.5399 0.518365 48.5399 1.13642V55.2458C48.5399 55.8838 48.0399 56.3822 47.3999 56.3822ZM8.77989 0.0398742C8.17989 0.0398742 7.67989 0.518365 7.67989 1.13642V55.2458C7.67989 55.8439 8.15989 56.3423 8.77989 56.3423H47.3999C47.9999 56.3423 48.4999 55.8638 48.4999 55.2458V1.13642C48.4999 0.538302 48.0199 0.0398742 47.3999 0.0398742H8.77989Z" fill="#EBEBEB"/>
<path d="M90.6599 56.3822H52.0399C51.4199 56.3822 50.8999 55.8638 50.8999 55.2458V1.13642C50.8999 0.518365 51.4199 0 52.0399 0H90.6599C91.2799 0 91.7999 0.518365 91.7999 1.13642V55.2458C91.7999 55.8838 91.2999 56.3822 90.6599 56.3822ZM52.0399 0.0398742C51.4399 0.0398742 50.9399 0.518365 50.9399 1.13642V55.2458C50.9399 55.8439 51.4199 56.3423 52.0399 56.3423H90.6599C91.2599 56.3423 91.7599 55.8638 91.7599 55.2458V1.13642C91.7599 0.538302 91.2799 0.0398742 90.6599 0.0398742H52.0399Z" fill="#EBEBEB"/>
<path d="M50.0799 36.7041H43.8999V65.2939H50.0799V36.7041Z" fill="#E6E6E6"/>
<path d="M48.9202 65.2738H50.1002V61.9443H47.6802L48.9202 65.2738Z" fill="#F0F0F0"/>
<path d="M18.98 36.7041H12.8V65.2939H18.98V36.7041Z" fill="#E6E6E6"/>
<path d="M50.08 36.7041H17.96V63.2404H50.08V36.7041Z" fill="#F0F0F0"/>
<path d="M49.1801 37.6011H18.8801V44.1604H49.1801V37.6011Z" fill="#E6E6E6"/>
<path d="M49.1799 44.918H34.4199V59.0733H49.1799V44.918Z" fill="#E6E6E6"/>
<path d="M33.6401 44.918H18.8801V59.0733H33.6401V44.918Z" fill="#E6E6E6"/>
<path d="M30.3401 47.4103C30.3401 47.9884 30.8001 48.447 31.3801 48.447C31.9601 48.447 32.4201 47.9884 32.4201 47.4103C32.4201 46.8321 31.9601 46.3735 31.3801 46.3735C30.8001 46.3735 30.3401 46.852 30.3401 47.4103Z" fill="#FAFAFA"/>
<path d="M35.6401 47.4103C35.6401 47.9884 36.1001 48.447 36.6801 48.447C37.2601 48.447 37.7201 47.9884 37.7201 47.4103C37.7201 46.8321 37.2601 46.3735 36.6801 46.3735C36.1001 46.3735 35.6401 46.852 35.6401 47.4103Z" fill="#FAFAFA"/>
<path d="M19.14 65.2738H17.96V61.9443H20.36L19.14 65.2738Z" fill="#F0F0F0"/>
<path d="M43.0601 40.9308C43.0601 41.5089 43.5201 41.9675 44.1001 41.9675C44.6801 41.9675 45.1401 41.5089 45.1401 40.9308C45.1401 40.3526 44.6801 39.894 44.1001 39.894C43.5201 39.894 43.0601 40.3526 43.0601 40.9308Z" fill="#FAFAFA"/>
<path d="M23.1799 40.9308C23.1799 41.5089 23.6399 41.9675 24.2199 41.9675C24.7999 41.9675 25.2599 41.5089 25.2599 40.9308C25.2599 40.3526 24.7999 39.894 24.2199 39.894C23.6399 39.894 23.1799 40.3526 23.1799 40.9308Z" fill="#FAFAFA"/>
<path d="M86.8398 5.104H53.3398V32.8565H86.8398V5.104Z" fill="#EBEBEB"/>
<path d="M87.6197 5.104H53.6997V32.8565H87.6197V5.104Z" fill="#F5F5F5"/>
<path d="M89.6798 32.8564H53.3398V33.7736H89.6798V32.8564Z" fill="#EBEBEB"/>
<path d="M88.7597 32.8564H57.1597V33.7736H88.7597V32.8564Z" fill="#F5F5F5"/>
<path d="M86.5259 31.7311V6.25146L54.7859 6.25146V31.7311L86.5259 31.7311Z" fill="#FAFAFA"/>
<path d="M61.5601 31.7199L70.8601 6.24023H75.2601L65.9401 31.7199H61.5601Z" fill="white"/>
<path d="M66.8999 31.7199L76.1999 6.24023H77.9199L68.5999 31.7199H66.8999Z" fill="white"/>
<path d="M72.3999 31.7199L81.7199 6.24023H83.4199L74.1199 31.7199H72.3999Z" fill="white"/>
<path d="M86.5234 31.7336V6.25391H86.3834V31.7336H86.5234Z" fill="#EBEBEB"/>
<path opacity="0.5" d="M87.8798 7.57596H54.3798L54.2798 6.69873H87.7798L87.8798 7.57596Z" fill="#EBEBEB"/>
<path opacity="0.5" d="M87.8798 8.65262H54.3798L54.2798 7.77539H87.7798L87.8798 8.65262Z" fill="#EBEBEB"/>
<path opacity="0.5" d="M87.8798 9.7493H54.3798L54.2798 8.87207H87.7798L87.8798 9.7493Z" fill="#EBEBEB"/>
<path opacity="0.5" d="M87.8798 10.846H54.3798L54.2798 9.96875H87.7798L87.8798 10.846Z" fill="#EBEBEB"/>
<path opacity="0.5" d="M87.8798 11.9227H54.3798L54.2798 11.0654H87.7798L87.8798 11.9227Z" fill="#EBEBEB"/>
<path opacity="0.5" d="M87.8798 13.0188H54.3798L54.2798 12.1416H87.7798L87.8798 13.0188Z" fill="#EBEBEB"/>
<path opacity="0.5" d="M87.8798 14.1155H54.3798L54.2798 13.2383H87.7798L87.8798 14.1155Z" fill="#EBEBEB"/>
<path opacity="0.5" d="M87.8798 15.2122H54.3798L54.2798 14.335H87.7798L87.8798 15.2122Z" fill="#EBEBEB"/>
<path opacity="0.5" d="M87.8798 16.2889H54.3798L54.2798 15.4116H87.7798L87.8798 16.2889Z" fill="#EBEBEB"/>
<path opacity="0.5" d="M87.8798 17.385H54.3798L54.2798 16.5078H87.7798L87.8798 17.385Z" fill="#EBEBEB"/>
<path opacity="0.5" d="M87.8798 18.4817H54.3798L54.2798 17.6045H87.7798L87.8798 18.4817Z" fill="#EBEBEB"/>
<path opacity="0.5" d="M87.8798 19.5784H54.3798L54.2798 18.7012H87.7798L87.8798 19.5784Z" fill="#EBEBEB"/>
<path opacity="0.5" d="M87.8798 20.6551H54.3798L54.2798 19.7778H87.7798L87.8798 20.6551Z" fill="#EBEBEB"/>
<path opacity="0.5" d="M87.8798 21.7513H54.3798L54.2798 20.874H87.7798L87.8798 21.7513Z" fill="#EBEBEB"/>
<path d="M62.1058 42.9414H80.9658V39.891H62.1058V42.9414Z" fill="#EBEBEB"/>
<path d="M62.1001 65.2744L64.0201 42.9448H66.6201L62.8801 65.2744H62.1001Z" fill="#E0E0E0"/>
<path d="M80.96 65.2744L79.04 42.9448H76.46L80.2 65.2744H80.96Z" fill="#E0E0E0"/>
<path d="M73.9002 65.2744L72.3202 42.9448H69.7402L73.1402 65.2744H73.9002Z" fill="#E0E0E0"/>
<path d="M21.1003 31.9592C22.2403 31.8795 23.0403 30.8826 22.8803 29.7462L21.5403 19.6979C21.3803 18.5615 20.3403 17.7042 19.2003 17.784C18.0603 17.8637 17.2603 18.8606 17.4203 19.997L18.7603 30.0453C18.9203 31.1817 19.9603 32.039 21.1003 31.9592Z" fill="#F5F5F5"/>
<path d="M22.2603 31.2218C23.0603 31.4211 23.7803 30.9626 23.8803 30.185L24.6803 23.3865C24.7803 22.6089 24.2003 21.8314 23.4003 21.632C22.6003 21.4326 21.8803 21.8912 21.7803 22.6687L20.9803 29.4673C20.9003 30.2249 21.4603 31.0224 22.2603 31.2218Z" fill="#F0F0F0"/>
<path d="M20.8402 32.2584C20.1002 32.4578 19.2402 31.9992 18.9002 31.2217L16.0202 24.4231C15.7002 23.6456 16.0202 22.868 16.7602 22.6686C17.5002 22.4693 18.3602 22.9278 18.7002 23.7054L21.5802 30.5039C21.9002 31.2615 21.5802 32.0391 20.8402 32.2584Z" fill="#E6E6E6"/>
<path d="M18.2001 36.704H24.4801L25.7801 29.2476H16.8801L18.2001 36.704Z" fill="#E6E6E6"/>
<path d="M16.4039 30.311H26.2639V28.1778H16.4039V30.311Z" fill="#E0E0E0"/>
<path d="M50 74.2856C71.4176 74.2856 88.78 73.2769 88.78 72.0327C88.78 70.7884 71.4176 69.7798 50 69.7798C28.5824 69.7798 11.22 70.7884 11.22 72.0327C11.22 73.2769 28.5824 74.2856 50 74.2856Z" fill="#F5F5F5"/>
<path d="M63.06 70.3981L61.46 70.3582L61.56 66.6499L63.16 66.6698L63.06 70.3981Z" fill="#FF8B7B"/>
<path d="M61.4402 70.1787L63.2002 70.1986C63.2602 70.1986 63.3202 70.2385 63.3202 70.3183L63.4802 71.7537C63.5002 71.8933 63.3602 72.0329 63.2202 72.0329C62.5802 72.0129 61.6802 71.9531 60.8802 71.9531C59.9602 71.9332 60.0402 71.9731 58.9602 71.9531C58.3002 71.9332 58.2002 71.2753 58.4802 71.2154C59.7602 70.9563 59.9002 70.9563 61.0602 70.2983C61.1602 70.2186 61.3002 70.1787 61.4402 70.1787Z" fill="#263238"/>
<path d="M61.0404 22.6486C60.8204 23.2268 60.5804 23.7252 60.3404 24.2635C60.0804 24.7819 59.8204 25.3003 59.5404 25.8186C58.9604 26.8354 58.3404 27.8522 57.5404 28.7893L57.4604 28.889C57.4204 28.9488 57.3804 28.9886 57.3204 29.0285C57.2204 29.1282 57.1004 29.2279 56.9604 29.3076C56.8204 29.3874 56.6404 29.4671 56.4804 29.5269C56.3004 29.5668 56.1204 29.5868 55.9404 29.5868C55.5804 29.5668 55.3204 29.4472 55.1004 29.3475C54.8804 29.2279 54.7204 29.1083 54.5804 28.9687C54.2804 28.7095 54.0804 28.4503 53.8804 28.1912C53.6804 27.932 53.5204 27.6728 53.3604 27.4136C52.7404 26.3569 52.3004 25.3003 51.9204 24.1838L53.0204 23.6854C53.3004 24.1439 53.6004 24.6224 53.9204 25.061C54.2204 25.5196 54.5404 25.9582 54.8804 26.3569C55.0404 26.5563 55.2004 26.7557 55.3804 26.9351C55.5404 27.1146 55.7204 27.2541 55.8804 27.3737C55.9604 27.4335 56.0204 27.4535 56.0604 27.4734C56.1004 27.4934 56.1004 27.4734 56.0404 27.4535C55.9804 27.4335 55.8604 27.4734 55.8204 27.4934C55.8004 27.5133 55.7804 27.5133 55.7804 27.5133C55.7804 27.5133 55.7804 27.5133 55.7804 27.4934L55.8204 27.4335C56.1204 27.0149 56.4004 26.5563 56.6604 26.1177C56.9204 25.6591 57.1804 25.1807 57.4204 24.7022C57.6604 24.2237 57.9004 23.7252 58.1404 23.2268C58.3804 22.7284 58.6004 22.23 58.8004 21.7515L61.0404 22.6486Z" fill="#FF8B7B"/>
<path d="M61.6601 21.6914C62.1401 23.1667 59.2601 27.1542 59.2601 27.1542L56.1201 25.1804C56.1201 25.1804 56.9401 23.1468 58.1201 21.5718C59.3001 19.9967 61.1401 20.0964 61.6601 21.6914Z" fill="#FBAF43"/>
<path opacity="0.2" d="M59.86 23.4259C59.24 23.705 58.16 25.7785 58.3 26.576L59.26 27.1741C59.26 27.1741 60.38 25.6389 61.1 24.1038C60.68 23.6651 60.18 23.2863 59.86 23.4259Z" fill="black"/>
<path d="M53.1001 24.1238L52.8001 22.3096L51.0801 22.9077C51.0801 22.9077 51.1201 24.3232 52.2801 24.5824L53.1001 24.1238Z" fill="#FF8B7B"/>
<path d="M51.6402 21.1132L50.9802 21.6515C50.8802 21.7512 50.8202 21.8908 50.8602 22.0304L51.0802 22.9275L52.8002 22.3294L52.2002 21.2129C52.1002 21.0136 51.8202 20.9537 51.6402 21.1132Z" fill="#FF8B7B"/>
<path opacity="0.2" d="M61.56 66.6499L61.5 68.5639L63.1 68.5838L63.16 66.6698L61.56 66.6499Z" fill="black"/>
<path d="M68.8003 21.0534C67.3003 27.1342 67.9003 33.5939 67.7803 34.8898L59.2003 34.7502C58.4203 25.3598 59.8003 20.4752 59.8003 20.4752C59.8003 20.4752 60.3403 20.3756 61.1003 20.2958C61.3403 20.2759 61.5803 20.2559 61.8403 20.236C61.9803 20.236 62.1403 20.2161 62.2803 20.2161C63.2403 20.1961 64.8403 20.3556 65.9403 20.4952C66.1603 20.5151 66.4003 20.555 66.6203 20.5949C66.8203 20.6347 67.0403 20.6746 67.2403 20.7145C68.1203 20.854 68.8003 21.0534 68.8003 21.0534Z" fill="#FBAF43"/>
<path opacity="0.2" d="M67.0802 23.6655C66.9402 24.2437 67.2202 26.9352 67.8602 27.5931C67.9202 26.7358 67.9802 25.8387 68.1002 24.9216L67.0802 23.6655Z" fill="black"/>
<path d="M65.7203 16.3682C65.4403 17.5245 65.1403 19.6379 65.9403 20.4752C65.2803 21.0534 64.4203 21.7312 63.0203 21.6714C61.6203 21.6116 61.9003 20.6746 62.2803 20.1961C63.6003 19.9768 63.6003 19.0198 63.4003 18.0828L65.7203 16.3682Z" fill="#FF8B7B"/>
<path d="M65.8602 20.3157C65.7202 20.535 65.0802 21.153 62.7002 21.6315C63.0402 21.8708 63.4002 22.4689 63.5802 22.8078C63.6602 22.9474 63.8202 23.0072 63.9602 22.9474C64.6402 22.6683 66.4202 21.8309 66.3402 20.4951C66.3402 20.4552 66.3202 20.4154 66.2802 20.3954C66.1802 20.3356 66.0602 20.2957 65.9802 20.2559C65.9402 20.2559 65.9002 20.2758 65.8602 20.3157Z" fill="white"/>
<path d="M61.6801 22.4688C61.9001 22.2097 62.2601 21.8109 62.7001 21.6315C62.4201 21.4122 62.1401 20.7742 62.2801 20.2558C62.3001 20.1761 62.2401 20.0764 62.1401 20.0963C62.0401 20.0963 61.9601 20.1163 61.9201 20.1362C61.9001 20.1362 61.8801 20.1561 61.8801 20.1561C61.7001 20.2957 60.4601 21.3125 61.2401 22.4489C61.3601 22.6084 61.5801 22.6084 61.6801 22.4688Z" fill="white"/>
<path opacity="0.2" d="M64.7804 17.0659L63.4204 18.0827C63.4604 18.302 63.5004 18.5213 63.5004 18.7406C64.0004 18.7008 64.7204 18.2023 64.7804 17.684C64.8204 17.4447 64.8204 17.2055 64.7804 17.0659Z" fill="black"/>
<path d="M61.9803 15.83C61.3003 15.6905 61.2403 13.7765 61.5603 13.298C61.1203 13.298 60.4403 12.7597 60.2803 12.2413C60.7603 12.2613 61.4403 11.9822 61.5603 11.7828C61.0803 11.5635 60.3603 10.8856 60.2803 10.3074C61.4803 10.8856 62.4003 10.9255 62.8003 10.8856C62.8003 10.8856 62.4003 10.5068 62.4803 10.0283C63.3603 10.4869 64.4803 10.8457 65.6803 10.8059C66.7403 10.766 67.2803 11.6233 66.8803 12.2613C67.8403 12.2413 67.1803 14.9329 66.2603 15.511C65.4003 15.9696 63.8403 16.2088 61.9803 15.83Z" fill="#263238"/>
<path d="M66.1202 14.6136C65.9202 16.1887 65.8802 17.1257 65.0202 17.8634C63.7402 18.9998 61.8202 18.1226 61.5402 16.5276C61.3002 15.0722 61.6602 12.7595 63.2602 12.2411C64.8402 11.7427 66.3202 13.0386 66.1202 14.6136Z" fill="#FF8B7B"/>
<path d="M65.6601 12.4209C65.6601 12.4209 64.6601 12.7997 64.9401 13.8165C65.2201 14.8134 65.1801 15.2719 65.0401 15.571C65.1401 15.89 65.9601 16.0295 65.9601 16.0295C65.9601 16.0295 66.6601 14.5741 66.7601 13.7567C66.8601 12.9193 65.6601 12.4209 65.6601 12.4209Z" fill="#263238"/>
<path d="M66.46 12.1814C66.86 12.2612 67.44 11.6032 67.48 11.0649C67.48 11.0649 67.72 12.9988 66.46 12.1814Z" fill="#263238"/>
<path d="M66.3403 12.0421C66.5403 12.8994 64.4603 13.3381 61.7603 13.2583C61.7603 13.2583 61.7403 12.2216 62.5603 11.8228C63.3803 11.4241 66.0803 10.9456 66.3403 12.0421Z" fill="#263238"/>
<path d="M66.76 16.2286C66.54 16.5875 66.16 16.8267 65.82 16.8865C65.3 17.0061 65.06 16.5276 65.24 16.0491C65.38 15.6305 65.84 15.0523 66.34 15.152C66.86 15.2517 67.02 15.8099 66.76 16.2286Z" fill="#FF8B7B"/>
<path d="M64.1802 50.6405C64.1202 42.5859 65.9002 34.8702 65.9002 34.8702L59.2002 34.7705C59.2002 34.7705 59.9602 46.3939 60.2402 51.2585C60.5202 56.3225 60.9002 68.2051 60.9002 68.2051L63.6202 68.2449C63.6202 68.225 64.5602 56.9805 64.1802 50.6405Z" fill="#333333"/>
<path opacity="0.2" d="M64.4401 39.276C62.5401 41.8878 63.4001 46.7724 64.1801 50.2414C64.1801 45.935 64.6801 41.7682 65.1601 38.8374L64.4401 39.276Z" fill="black"/>
<path d="M60.7401 68.2445L63.9801 68.3043L64.1601 67.2476L60.5601 67.1479L60.7401 68.2445Z" fill="#263238"/>
<path d="M64.0002 14.873C64.0002 14.9927 63.9202 15.0923 63.8402 15.0923C63.7602 15.0923 63.7002 14.9727 63.7002 14.8531C63.7002 14.7335 63.7802 14.6338 63.8602 14.6338C63.9402 14.6338 64.0202 14.7534 64.0002 14.873Z" fill="#263238"/>
<path d="M62.2204 14.7734C62.2204 14.893 62.1404 14.9927 62.0604 14.9927C61.9804 14.9927 61.9204 14.8731 61.9204 14.7535C61.9204 14.6339 62.0004 14.5342 62.0804 14.5342C62.1604 14.5342 62.2204 14.6538 62.2204 14.7734Z" fill="#263238"/>
<path d="M62.68 14.873C62.68 14.873 62.34 15.5908 62 15.9297C62.22 16.169 62.6 16.0892 62.6 16.0892L62.68 14.873Z" fill="#FF5652"/>
<path d="M63.1204 16.4681C63.6204 16.4481 63.8604 16.1092 63.8804 16.1092C63.9004 16.0893 63.8804 16.0693 63.8804 16.0494C63.8604 16.0295 63.8404 16.0494 63.8204 16.0494C63.8204 16.0494 63.5204 16.4282 62.9604 16.3883C62.9404 16.3883 62.9204 16.4083 62.9204 16.4282C62.9204 16.4481 62.9404 16.4681 62.9604 16.4681C63.0204 16.4681 63.0604 16.4681 63.1204 16.4681Z" fill="#263238"/>
<path d="M64.2601 14.2153C64.2801 14.2153 64.2801 14.2153 64.3001 14.1954C64.3401 14.1754 64.3401 14.1356 64.3201 14.0957C64.0801 13.7368 63.7401 13.7368 63.7201 13.7368C63.6801 13.7368 63.6401 13.7767 63.6401 13.8166C63.6401 13.8564 63.6801 13.8963 63.7201 13.8963C63.7401 13.8963 64.0001 13.8963 64.1801 14.1754C64.2201 14.1954 64.2401 14.2153 64.2601 14.2153Z" fill="#263238"/>
<path d="M61.64 14.1155C61.66 14.1155 61.68 14.1155 61.7 14.0756C61.9 13.8165 62.18 13.8165 62.18 13.8165C62.22 13.8165 62.26 13.7965 62.26 13.7367C62.26 13.6968 62.24 13.657 62.18 13.657C62.16 13.657 61.82 13.637 61.56 13.976C61.54 14.0158 61.54 14.0557 61.58 14.0756C61.6 14.1155 61.62 14.1155 61.64 14.1155Z" fill="#263238"/>
<path d="M61.1402 70.3181C61.1602 70.3181 61.1602 70.2981 61.1602 70.2782C61.1602 70.2582 61.1602 70.2383 61.1402 70.2383C61.0602 70.1984 60.4202 69.8595 60.2402 69.9592C60.2002 69.9791 60.1802 70.019 60.1802 70.0589C60.1802 70.1386 60.2002 70.1984 60.2402 70.2383C60.4202 70.4177 60.8802 70.3779 61.1402 70.3181ZM60.3002 70.0389C60.4202 69.9991 60.7602 70.1386 61.0202 70.2582C60.6602 70.3181 60.4002 70.2981 60.3002 70.1984C60.2602 70.1586 60.2602 70.1187 60.2602 70.0788C60.2602 70.0788 60.2602 70.0589 60.3002 70.0389C60.2802 70.0389 60.2802 70.0389 60.3002 70.0389Z" fill="#333333"/>
<path d="M61.1401 70.318C61.1601 70.2981 61.1601 70.298 61.1601 70.2781C61.1601 70.2582 61.1201 69.8196 60.9201 69.6601C60.8601 69.6002 60.7801 69.5803 60.7201 69.6003C60.6201 69.6003 60.5801 69.6601 60.5801 69.6999C60.5401 69.8794 60.9201 70.2382 61.1201 70.318H61.1401ZM60.6801 69.68C60.6801 69.68 60.7001 69.68 60.7201 69.68C60.7801 69.68 60.8201 69.6999 60.8801 69.7398C61.0201 69.8594 61.0601 70.1186 61.0801 70.2382C60.8801 70.1186 60.6201 69.8395 60.6401 69.7398C60.6601 69.6999 60.6601 69.68 60.6801 69.68Z" fill="#333333"/>
<path d="M72.0604 70.3981L70.4604 70.3582L69.9204 66.6499L71.5204 66.6698L72.0604 70.3981Z" fill="#FF8B7B"/>
<path d="M70.3602 70.1787L72.1202 70.1986C72.1802 70.1986 72.2402 70.2385 72.2402 70.3183L72.4002 71.7537C72.4202 71.8933 72.2802 72.0329 72.1402 72.0329C71.5002 72.0129 71.3202 71.9531 70.5202 71.9531C69.6002 71.9332 70.0202 71.9731 68.9402 71.9531C68.2802 71.9332 68.1802 71.2753 68.4602 71.2154C69.3602 71.036 69.5802 70.6771 69.9802 70.2983C70.0802 70.1986 70.2402 70.1787 70.3602 70.1787Z" fill="#263238"/>
<path opacity="0.2" d="M69.9204 66.6499L70.2004 68.5639L71.8004 68.5838L71.5204 66.6698L69.9204 66.6499Z" fill="black"/>
<path d="M69.7801 50.4407C68.8601 43.2434 68.8801 36.5046 67.8001 34.8897L62.1201 34.79C62.1201 34.79 65.0401 46.1542 66.1401 50.959C67.3001 55.9433 69.4801 67.7062 69.4801 67.7062L72.0601 67.7461C72.0601 67.7461 71.4801 56.0031 69.7801 50.4407Z" fill="#333333"/>
<path d="M69.1204 68.2445L72.3404 68.3043L72.5204 67.2476L68.9204 67.1479L69.1204 68.2445Z" fill="#263238"/>
<path d="M70.6801 70.2984C70.7001 70.2984 70.7001 70.2984 70.7201 70.2784C70.7201 70.2585 70.7201 70.2386 70.7201 70.2386C70.6601 70.1788 70.1801 69.6405 69.9601 69.6803C69.9201 69.6803 69.8801 69.7202 69.8601 69.7601C69.8201 69.8199 69.8201 69.8996 69.8601 69.9594C69.9601 70.1588 70.4201 70.2585 70.6801 70.2984ZM69.9801 69.7401C70.1001 69.7401 70.3801 69.9993 70.5801 70.1987C70.2201 70.1189 69.9801 70.0193 69.9201 69.8996C69.9001 69.8598 69.9001 69.8199 69.9201 69.7601C69.9401 69.7601 69.9401 69.7601 69.9801 69.7401Z" fill="#333333"/>
<path d="M70.68 70.2984C70.7 70.2984 70.7 70.2984 70.68 70.2984C70.7 70.2984 70.72 70.2785 70.72 70.2785C70.72 70.2586 70.84 69.8399 70.7 69.6206C70.66 69.5408 70.6 69.501 70.52 69.481C70.42 69.4611 70.38 69.501 70.34 69.5209C70.24 69.6804 70.48 70.1389 70.64 70.2984C70.66 70.2984 70.68 70.2984 70.68 70.2984ZM70.48 69.5408C70.5 69.5408 70.5 69.5408 70.52 69.5408C70.58 69.5608 70.62 69.5807 70.64 69.6405C70.72 69.8 70.68 70.0592 70.66 70.1788C70.52 69.9994 70.38 69.6605 70.42 69.5608C70.44 69.5608 70.44 69.5408 70.48 69.5408Z" fill="#333333"/>
<path d="M69.2406 21.9902C69.8006 22.9871 70.3006 23.9839 70.7806 25.0007C71.2606 26.0175 71.7006 27.0543 72.1006 28.1508C72.2006 28.4299 72.3006 28.6891 72.3806 28.9682L72.4606 29.1875C72.5006 29.3072 72.5206 29.4268 72.5406 29.5265C72.5806 29.7657 72.5806 29.985 72.5606 30.2043C72.5206 30.6429 72.3806 31.0217 72.2206 31.3407C72.0606 31.6597 71.8606 31.9389 71.6806 32.198C71.2806 32.7164 70.8406 33.1351 70.3606 33.494C70.1206 33.6734 69.8806 33.8528 69.6406 34.0123C69.4006 34.1718 69.1606 34.3313 68.8806 34.4709L68.1806 33.494C68.3606 33.3145 68.5406 33.1151 68.7206 32.9158C68.9006 32.7164 69.0606 32.517 69.2406 32.3177C69.5806 31.9189 69.8806 31.5002 70.1006 31.1015C70.3206 30.7028 70.4606 30.2841 70.4406 30.0448C70.4406 29.985 70.4206 29.9451 70.4206 29.9053C70.4206 29.8853 70.4006 29.8654 70.4006 29.8455L70.3206 29.666C70.2206 29.4268 70.1206 29.1875 70.0206 28.9284C69.6006 27.9514 69.1006 26.9745 68.6206 25.9976C68.1406 25.0207 67.6206 24.0438 67.1206 23.0868L69.2406 21.9902Z" fill="#FF8B7B"/>
<path d="M68.8005 21.0534C70.2805 21.512 71.5005 25.3598 71.5005 25.3598L68.2804 27.1542C68.2804 27.1542 67.3804 25.5393 66.6804 23.6453C65.9204 21.6316 67.0005 20.4952 68.8005 21.0534Z" fill="#FBAF43"/>
<path d="M68.6606 33.2949L67.1406 33.8731L68.3206 35.4282C68.3206 35.4282 69.6206 34.7304 69.3806 33.9927L68.6606 33.2949Z" fill="#FF8B7B"/>
<path d="M66.4404 35.4082L66.9404 35.8867C67.1404 36.0661 67.4404 36.0861 67.6604 35.9266L68.3004 35.4281L67.1204 33.873L66.4004 34.6107C66.2204 34.83 66.2204 35.1889 66.4404 35.4082Z" fill="#FF8B7B"/>
<path d="M51.4799 61.7451H28.4799C27.1199 61.7451 25.9199 60.6286 25.8199 59.2729L22.8199 15.8897C22.7199 14.534 23.7599 13.4175 25.1399 13.4175H48.1399C49.4999 13.4175 50.6999 14.534 50.7999 15.8897L53.7999 59.2729C53.8799 60.6286 52.8399 61.7451 51.4799 61.7451Z" fill="white"/>
<path d="M48.14 13.6169C49.4 13.6169 50.52 14.6536 50.6 15.9096L53.6 59.2928C53.64 59.8909 53.44 60.4691 53.04 60.8878C52.64 61.3064 52.08 61.5457 51.48 61.5457H28.48C27.22 61.5457 26.1 60.509 26.02 59.2529L23.02 15.8697C22.98 15.2716 23.18 14.6935 23.58 14.2748C23.98 13.8561 24.54 13.6169 25.14 13.6169H48.14ZM48.14 13.4175H25.14C23.78 13.4175 22.72 14.534 22.82 15.8897L25.82 59.2729C25.92 60.6286 27.12 61.7451 28.48 61.7451H51.48C52.84 61.7451 53.9 60.6286 53.8 59.2729L50.8 15.8897C50.7 14.534 49.5 13.4175 48.14 13.4175Z" fill="#333333"/>
<path d="M52.4398 61.7451H29.4398C28.0798 61.7451 26.8798 60.6286 26.7798 59.2729L23.7798 15.8897C23.6798 14.534 24.7198 13.4175 26.0998 13.4175H49.0998C50.4598 13.4175 51.6598 14.534 51.7598 15.8897L54.7598 59.2729C54.8398 60.6286 53.7998 61.7451 52.4398 61.7451Z" fill="#333333"/>
<path d="M29.06 56.3218C28.34 56.3218 27.74 55.7436 27.68 55.0458L25.08 17.3248C25.04 16.6071 25.56 16.0488 26.28 16.0488H49.28C50 16.0488 50.6 16.627 50.66 17.3248L53.26 55.0458C53.3 55.7636 52.78 56.3218 52.06 56.3218H29.06Z" fill="#FBAF43"/>
<path d="M52.06 56.3618H29.06C28.32 56.3618 27.68 55.7637 27.64 55.0261L25.04 17.305C25.02 16.9462 25.14 16.6072 25.36 16.368C25.6 16.1088 25.92 15.9692 26.28 15.9692H49.28C50.02 15.9692 50.66 16.5674 50.7 17.305L53.3 55.0261C53.32 55.3849 53.2 55.7239 52.98 55.9631C52.74 56.2223 52.42 56.3618 52.06 56.3618ZM26.28 16.0689C25.96 16.0689 25.66 16.1885 25.44 16.4278C25.22 16.667 25.12 16.9661 25.14 17.305L27.74 55.0261C27.78 55.7039 28.38 56.2622 29.06 56.2622H52.06C52.38 56.2622 52.68 56.1425 52.9 55.9033C53.12 55.664 53.22 55.365 53.2 55.0261L50.6 17.305C50.56 16.6272 49.96 16.0689 49.28 16.0689H26.28Z" fill="white"/>
<path d="M37.9998 12.7197H36.2598V12.9191H37.9998V12.7197Z" fill="#333333"/>
<path d="M34.2999 12.7197H30.4399V12.9191H34.2999V12.7197Z" fill="#333333"/>
<path d="M44.4398 33.9335H34.1598C33.6798 33.9335 33.2598 33.5746 33.1798 33.0961L32.0798 26.5368C31.9798 25.9985 32.3798 25.52 32.9198 25.52H44.4998C45.0398 25.52 45.4998 25.9985 45.4798 26.5368L45.2798 33.0961C45.2798 33.5746 44.8998 33.9335 44.4398 33.9335Z" fill="white"/>
<path d="M44.4398 34.2324H34.1598C33.5398 34.2324 32.9998 33.7738 32.8798 33.1558L31.7798 26.5964C31.7198 26.2575 31.8198 25.8986 32.0398 25.6395C32.2598 25.3803 32.5798 25.2407 32.9198 25.2407H44.4998C44.8398 25.2407 45.1798 25.3803 45.4198 25.6395C45.6598 25.8986 45.7998 26.2176 45.7798 26.5566L45.5798 33.1159C45.5798 33.7339 45.0598 34.2324 44.4398 34.2324ZM32.9198 25.8189C32.7398 25.8189 32.5998 25.8787 32.4798 26.0183C32.3798 26.1379 32.3198 26.3173 32.3598 26.4768L33.4598 33.0361C33.5198 33.3551 33.8198 33.6143 34.1398 33.6143H44.4198C44.7398 33.6143 44.9798 33.3751 44.9798 33.076L45.1798 26.5167C45.1798 26.3373 45.1198 26.1578 44.9798 26.0183C44.8398 25.8787 44.6598 25.799 44.4798 25.799H32.9198V25.8189Z" fill="white"/>
<path d="M45.3 33.3948C45.28 33.3948 45.28 33.3948 45.3 33.3948C45.12 33.3948 45 33.2553 45 33.0958L45.3 23.1073C45.3 23.0076 45.36 22.9079 45.46 22.8481C45.56 22.8082 45.68 22.8082 45.76 22.868L47.56 24.1041C47.7 24.2038 47.74 24.3833 47.64 24.5228C47.54 24.6624 47.36 24.7023 47.22 24.6026L45.88 23.6655L45.6 33.0958C45.58 33.2752 45.46 33.3948 45.3 33.3948Z" fill="white"/>
<path d="M37.8669 38.2066C38.4962 37.5572 38.4396 36.485 37.7405 35.8118C37.0415 35.1385 35.9646 35.1192 35.3353 35.7686C34.706 36.4179 34.7625 37.4901 35.4616 38.1633C36.1607 38.8366 37.2375 38.8559 37.8669 38.2066Z" fill="white"/>
<path d="M36.7199 38.8179C35.7199 38.8179 34.8399 38.0005 34.7799 37.0037C34.7399 36.5052 34.8999 36.0467 35.2399 35.7077C35.5599 35.3688 36.0199 35.1694 36.4999 35.1694C37.4999 35.1694 38.3799 35.9869 38.4399 36.9837C38.4799 37.4821 38.3199 37.9407 37.9799 38.2796C37.6599 38.6186 37.2199 38.8179 36.7199 38.8179ZM36.4999 35.4286C36.0799 35.4286 35.6999 35.5881 35.4199 35.8872C35.1399 36.1862 34.9999 36.565 35.0399 36.9837C35.0999 37.8609 35.8599 38.5587 36.7199 38.5587C37.1399 38.5587 37.5199 38.3992 37.7999 38.1002C38.0799 37.8011 38.2199 37.4223 38.1799 37.0037C38.1199 36.1264 37.3599 35.4286 36.4999 35.4286Z" fill="white"/>
<path d="M43.4845 38.2012C44.1138 37.5518 44.0573 36.4796 43.3582 35.8064C42.6591 35.1332 41.5823 35.1138 40.953 35.7632C40.3236 36.4125 40.3802 37.4847 41.0793 38.158C41.7783 38.8312 42.8552 38.8506 43.4845 38.2012Z" fill="white"/>
<path d="M42.3401 38.8179C41.3401 38.8179 40.4601 38.0005 40.4001 37.0037C40.3601 36.5052 40.5201 36.0467 40.8601 35.7077C41.1801 35.3688 41.6401 35.1694 42.1201 35.1694C43.1201 35.1694 44.0001 35.9869 44.0601 36.9837C44.1001 37.4821 43.9401 37.9407 43.6001 38.2796C43.2801 38.6186 42.8201 38.8179 42.3401 38.8179ZM42.1001 35.4286C41.6801 35.4286 41.3001 35.5881 41.0201 35.8872C40.7401 36.1862 40.6001 36.565 40.6401 36.9837C40.7001 37.8609 41.4601 38.5587 42.3201 38.5587C42.7401 38.5587 43.1201 38.3992 43.4001 38.1002C43.6801 37.8011 43.8201 37.4223 43.7801 37.0037C43.7401 36.1264 42.9801 35.4286 42.1001 35.4286Z" fill="white"/>
<path d="M41.5967 26.058C43.1546 24.4505 43.0137 21.7953 41.2819 20.1275C39.5501 18.4597 36.8832 18.4109 35.3253 20.0184C33.7673 21.626 33.9083 24.2812 35.6401 25.949C37.3719 27.6168 40.0388 27.6656 41.5967 26.058Z" fill="#333333"/>
<path d="M38.6801 26.5564C36.7401 26.5564 35.0601 24.9813 34.9201 23.0474C34.8601 22.1104 35.1601 21.2132 35.7801 20.5553C36.4001 19.8974 37.2601 19.5186 38.2201 19.5186C40.1601 19.5186 41.8401 21.0936 41.9801 23.0275C42.0401 23.9645 41.7401 24.8617 41.1201 25.5196C40.5001 26.1975 39.6201 26.5564 38.6801 26.5564ZM38.2201 19.8375C37.3601 19.8375 36.5801 20.1765 36.0201 20.7746C35.4601 21.3727 35.1801 22.1702 35.2401 23.0275C35.3601 24.8019 36.9001 26.2374 38.6801 26.2374C39.5401 26.2374 40.3201 25.8984 40.8801 25.3003C41.4401 24.7022 41.7201 23.9047 41.6601 23.0474C41.5401 21.273 40.0001 19.8375 38.2201 19.8375Z" fill="white"/>
<path d="M36.1001 22.868C36.1001 22.868 37.5801 23.6655 38.2601 24.6823C38.6401 23.8848 39.2001 22.7683 40.7401 21.5322C38.8001 22.3496 38.2001 23.6655 38.2001 23.6655C38.2001 23.6655 37.4001 23.0076 36.1001 22.868Z" fill="white"/>
<path d="M40.8399 60.4689C39.9999 60.4689 39.2799 59.7911 39.2199 58.9537C39.1999 58.555 39.3199 58.1562 39.5999 57.8771C39.8599 57.598 40.2399 57.4385 40.6399 57.4385C41.4799 57.4385 42.1999 58.1163 42.2599 58.9537C42.2799 59.3524 42.1599 59.7512 41.8799 60.0303C41.6199 60.3094 41.2599 60.4689 40.8399 60.4689ZM40.6399 57.5382C40.2599 57.5382 39.9199 57.6777 39.6599 57.9568C39.3999 58.216 39.2799 58.5749 39.3199 58.9537C39.3799 59.7312 40.0599 60.3692 40.8399 60.3692C41.2199 60.3692 41.5599 60.2297 41.8199 59.9506C42.0799 59.6914 42.1999 59.3325 42.1599 58.9537C42.1199 58.1762 41.4199 57.5382 40.6399 57.5382Z" fill="white"/>
<path d="M40.4399 52.9329L35.8999 49.1449L40.4399 45.0976L42.4599 44.5593L43.8199 43.1239C44.0599 42.8647 44.3999 42.7251 44.7599 42.745C45.1599 42.765 45.5399 42.9444 45.7999 43.2634L47.0199 44.6989C47.2999 45.0179 47.3999 45.4366 47.3399 45.8353C47.2799 46.1942 47.0399 46.5132 46.7199 46.6727L45.1599 47.51C45.1399 48.2876 44.7999 49.0053 44.2399 49.5237L40.4399 52.9329ZM36.1399 49.1449L40.4199 52.7136L44.1199 49.404C44.6599 48.9056 44.9599 48.2278 44.9799 47.4701V47.4303L46.6199 46.553C46.8999 46.3935 47.0799 46.1344 47.1399 45.8353C47.1999 45.4964 47.0999 45.1176 46.8599 44.8384L45.6399 43.403C45.3999 43.1238 45.0799 42.9644 44.7199 42.9444C44.3999 42.9245 44.1199 43.0441 43.8999 43.2634L42.4999 44.7388L40.4399 45.2771L36.1399 49.1449Z" fill="white"/>
<path d="M44.7601 49.3643L44.5001 49.165L40.3401 45.8554C39.7801 45.4168 39.1601 45.0978 38.4801 44.9383L37.3801 44.6592L35.8001 43.2037C35.2401 42.6854 34.3801 42.7452 33.9601 43.3234L32.9401 44.7588C32.5201 45.3769 32.7601 46.2541 33.4801 46.613L35.2001 47.4703C35.3201 48.2478 35.7401 48.9656 36.3601 49.464L40.5801 52.8334L40.9201 53.0926C41.2201 53.3318 41.6801 53.2919 41.9001 52.9929C42.1201 52.6938 42.0201 52.2751 41.7001 52.016L42.1201 52.335C42.3801 52.5343 42.7601 52.5742 43.0001 52.3748C43.3401 52.0957 43.3201 51.5773 42.9601 51.2982L43.2001 51.4777C43.4601 51.677 43.8401 51.7169 44.0801 51.5175C44.4201 51.2384 44.4001 50.72 44.0401 50.4409L43.9801 50.4011C44.2801 50.6403 44.7401 50.6004 44.9601 50.3014C45.1601 50.0222 45.0601 49.6036 44.7601 49.3643Z" fill="white"/>
<path d="M38.4401 48.3872C38.3801 48.3872 38.3001 48.3872 38.2401 48.3672C38.0001 48.3274 37.8401 48.2077 37.7601 48.0283C37.6801 47.8289 37.9001 47.5897 38.2401 47.2109C38.5801 46.852 38.9801 46.3935 39.2601 45.8352C39.7001 44.9381 41.2201 44.6988 42.5001 44.5991L42.5201 44.7387C41.2801 44.8384 39.8201 45.0577 39.4001 45.895C39.1001 46.4732 38.6801 46.9318 38.3601 47.3106C38.0801 47.6096 37.8601 47.8688 37.9001 47.9884C37.9601 48.128 38.1001 48.2277 38.2801 48.2676C38.7401 48.3473 39.4401 48.0682 39.8601 47.6495C40.3201 47.1909 41.1601 47.171 41.2001 47.171C42.1601 47.0713 42.7801 46.5928 42.7801 46.5928L42.8601 46.6925C42.8401 46.7125 42.2201 47.2109 41.2001 47.3106C41.1801 47.3106 40.3801 47.3305 39.9601 47.7492C39.5601 48.1081 38.9201 48.3872 38.4401 48.3872Z" fill="white"/>
<path d="M36.28 50.6802C36.1 50.6802 35.9 50.6204 35.74 50.4808C35.56 50.3213 35.46 50.102 35.46 49.8628C35.46 49.6434 35.54 49.464 35.7 49.3244L36.36 48.7263C36.64 48.4871 37.08 48.4871 37.38 48.7463C37.56 48.9058 37.66 49.1251 37.66 49.3643C37.66 49.5836 37.58 49.7631 37.42 49.9026L36.76 50.5007C36.64 50.6204 36.46 50.6802 36.28 50.6802ZM36.86 48.7064C36.72 48.7064 36.58 48.7463 36.48 48.846L35.82 49.4441C35.7 49.5438 35.64 49.7033 35.64 49.8628C35.64 50.0422 35.72 50.2216 35.86 50.3412C36.1 50.5406 36.44 50.5606 36.66 50.3612L37.32 49.7631C37.44 49.6634 37.5 49.5039 37.5 49.3444C37.5 49.165 37.42 48.9855 37.28 48.8659C37.16 48.7662 37 48.7064 36.86 48.7064Z" fill="white"/>
<path d="M37.1999 51.7564C37.0199 51.7564 36.8199 51.6966 36.6599 51.557C36.4799 51.3975 36.3799 51.1782 36.3799 50.939C36.3799 50.7197 36.4599 50.5402 36.6199 50.4007L37.4199 49.6829C37.7199 49.4238 38.1799 49.4437 38.4799 49.7428C38.6399 49.9023 38.7199 50.1216 38.7199 50.3409C38.7199 50.5402 38.6199 50.7197 38.4799 50.8592L37.6799 51.577C37.5399 51.6966 37.3799 51.7564 37.1999 51.7564ZM37.9199 49.6829C37.7799 49.6829 37.6599 49.7228 37.5399 49.8225L36.7399 50.5402C36.6199 50.6399 36.5599 50.7994 36.5599 50.9589C36.5599 51.1384 36.6399 51.3178 36.7799 51.4374C37.0199 51.6368 37.3599 51.6567 37.5799 51.4573L38.3799 50.7396C38.4999 50.6399 38.5599 50.5004 38.5599 50.3409C38.5599 50.1614 38.4999 50.0019 38.3599 49.8624C38.2399 49.7428 38.0799 49.6829 37.9199 49.6829Z" fill="white"/>
<path d="M38.3801 52.6138C38.2001 52.6138 38.0001 52.554 37.8401 52.4144C37.6601 52.2549 37.5601 52.0356 37.5601 51.7963C37.5601 51.577 37.6401 51.3976 37.8001 51.258L38.4601 50.6599C38.7401 50.4207 39.1801 50.4207 39.4801 50.6799C39.6601 50.8394 39.7601 51.0587 39.7601 51.2979C39.7601 51.5172 39.6801 51.6967 39.5201 51.8362L38.8601 52.4343C38.7401 52.554 38.5601 52.6138 38.3801 52.6138ZM38.9601 50.64C38.8201 50.64 38.6801 50.6799 38.5801 50.7795L37.9201 51.3777C37.8001 51.4774 37.7401 51.6368 37.7401 51.7963C37.7401 51.9758 37.8201 52.1552 37.9601 52.2748C38.2001 52.4742 38.5401 52.4941 38.7601 52.2948L39.4201 51.6967C39.5401 51.597 39.6001 51.4375 39.6001 51.278C39.6001 51.0985 39.5201 50.9191 39.3801 50.7995C39.2601 50.6998 39.1001 50.64 38.9601 50.64Z" fill="white"/>
<path d="M39.6999 53.3314C39.5199 53.3314 39.3199 53.2716 39.1599 53.1321C38.9799 52.9726 38.8799 52.7533 38.8799 52.514C38.8799 52.2947 38.9599 52.1153 39.1199 51.9757L39.8199 51.3577C40.0799 51.1184 40.4999 51.1184 40.7999 51.3577C40.9999 51.5172 41.0999 51.7365 41.1199 51.9757C41.1199 52.195 41.0399 52.3944 40.8799 52.5339L40.1799 53.152C40.0599 53.2716 39.8799 53.3314 39.6999 53.3314ZM40.2999 51.3577C40.1599 51.3577 40.0399 51.3975 39.9199 51.4972L39.2199 52.1153C39.0999 52.215 39.0399 52.3744 39.0399 52.5339C39.0399 52.7134 39.1199 52.8928 39.2599 53.0124C39.4999 53.2118 39.8399 53.2317 40.0599 53.0324L40.7599 52.4143C40.8799 52.3146 40.9399 52.1551 40.9399 51.9757C40.9399 51.7963 40.8399 51.6168 40.6799 51.4972C40.5799 51.3975 40.4399 51.3577 40.2999 51.3577Z" fill="white"/>
</g>
<defs>
<clipPath id="clip0_1673_8729">
<rect width="100" height="74.2857" fill="white"/>
</clipPath>
</defs>
</svg>
