<svg width="256" height="256" viewBox="0 0 256 256" fill="none" xmlns="http://www.w3.org/2000/svg">
<rect x="0.5" y="0.5" width="255" height="255" rx="14.5" stroke="#FBAF43"/>
<path d="M59.4148 201.222H56.7557C56.6534 200.653 56.4631 200.153 56.1847 199.722C55.9063 199.29 55.5653 198.923 55.1619 198.622C54.7585 198.321 54.3068 198.094 53.8068 197.94C53.3125 197.787 52.7869 197.71 52.2301 197.71C51.2244 197.71 50.3239 197.963 49.5284 198.469C48.7386 198.974 48.1136 199.716 47.6534 200.693C47.1989 201.67 46.9716 202.864 46.9716 204.273C46.9716 205.693 47.1989 206.892 47.6534 207.869C48.1136 208.847 48.7415 209.585 49.5369 210.085C50.3324 210.585 51.2273 210.835 52.2216 210.835C52.7727 210.835 53.2955 210.761 53.7898 210.614C54.2898 210.46 54.7415 210.236 55.1449 209.94C55.5483 209.645 55.8892 209.284 56.1676 208.858C56.4517 208.426 56.6477 207.932 56.7557 207.375L59.4148 207.384C59.2727 208.241 58.9972 209.031 58.5881 209.753C58.1847 210.469 57.6648 211.088 57.0284 211.611C56.3977 212.128 55.6761 212.528 54.8636 212.812C54.0511 213.097 53.1648 213.239 52.2045 213.239C50.6932 213.239 49.3466 212.881 48.1648 212.165C46.983 211.443 46.0511 210.412 45.3693 209.071C44.6932 207.73 44.3551 206.131 44.3551 204.273C44.3551 202.409 44.696 200.81 45.3778 199.474C46.0597 198.134 46.9915 197.105 48.1733 196.389C49.3551 195.668 50.6989 195.307 52.2045 195.307C53.1307 195.307 53.9943 195.44 54.7955 195.707C55.6023 195.969 56.3267 196.355 56.9688 196.866C57.6108 197.372 58.142 197.991 58.5625 198.724C58.983 199.452 59.267 200.284 59.4148 201.222ZM64.9098 195.545V213H62.3615V195.545H64.9098ZM68.3381 213V199.909H70.8864V213H68.3381ZM69.625 197.889C69.1818 197.889 68.8011 197.741 68.483 197.446C68.1705 197.145 68.0142 196.787 68.0142 196.372C68.0142 195.952 68.1705 195.594 68.483 195.298C68.8011 194.997 69.1818 194.847 69.625 194.847C70.0682 194.847 70.446 194.997 70.7585 195.298C71.0767 195.594 71.2358 195.952 71.2358 196.372C71.2358 196.787 71.0767 197.145 70.7585 197.446C70.446 197.741 70.0682 197.889 69.625 197.889ZM79.8288 213.264C78.5618 213.264 77.4709 212.977 76.5561 212.403C75.647 211.824 74.9482 211.026 74.4595 210.009C73.9709 208.991 73.7266 207.827 73.7266 206.514C73.7266 205.185 73.9766 204.011 74.4766 202.994C74.9766 201.972 75.6811 201.173 76.5902 200.599C77.4993 200.026 78.5703 199.739 79.8033 199.739C80.7976 199.739 81.6839 199.923 82.4624 200.293C83.2408 200.656 83.8686 201.168 84.3459 201.827C84.8288 202.486 85.1158 203.256 85.2067 204.136H82.7266C82.5902 203.523 82.2777 202.994 81.7891 202.551C81.3061 202.108 80.6584 201.886 79.8459 201.886C79.1357 201.886 78.5135 202.074 77.9794 202.449C77.451 202.818 77.0391 203.347 76.7436 204.034C76.4482 204.716 76.3004 205.523 76.3004 206.455C76.3004 207.409 76.4453 208.233 76.7351 208.926C77.0249 209.619 77.4339 210.156 77.9624 210.537C78.4964 210.918 79.1243 211.108 79.8459 211.108C80.3288 211.108 80.7663 211.02 81.1584 210.844C81.5561 210.662 81.8885 210.403 82.1555 210.068C82.4283 209.733 82.6186 209.33 82.7266 208.858H85.2067C85.1158 209.705 84.8402 210.46 84.38 211.125C83.9197 211.79 83.3033 212.312 82.5305 212.693C81.7635 213.074 80.8629 213.264 79.8288 213.264ZM90.2756 208.56L90.2585 205.449H90.7017L95.9176 199.909H98.9688L93.0199 206.216H92.6193L90.2756 208.56ZM87.9318 213V195.545H90.4801V213H87.9318ZM96.1989 213L91.5114 206.778L93.267 204.997L99.3267 213H96.1989ZM113.754 199.909V201.955H106.603V199.909H113.754ZM108.521 196.773H111.069V209.156C111.069 209.651 111.143 210.023 111.29 210.273C111.438 210.517 111.629 210.685 111.862 210.776C112.1 210.861 112.359 210.903 112.637 210.903C112.842 210.903 113.021 210.889 113.174 210.861C113.327 210.832 113.447 210.81 113.532 210.793L113.992 212.898C113.844 212.955 113.634 213.011 113.362 213.068C113.089 213.131 112.748 213.165 112.339 213.17C111.668 213.182 111.043 213.062 110.464 212.812C109.884 212.562 109.415 212.176 109.058 211.653C108.7 211.131 108.521 210.474 108.521 209.685V196.773ZM121.946 213.264C120.719 213.264 119.648 212.983 118.733 212.42C117.818 211.858 117.108 211.071 116.602 210.06C116.097 209.048 115.844 207.866 115.844 206.514C115.844 205.156 116.097 203.969 116.602 202.952C117.108 201.935 117.818 201.145 118.733 200.582C119.648 200.02 120.719 199.739 121.946 199.739C123.173 199.739 124.244 200.02 125.159 200.582C126.074 201.145 126.784 201.935 127.29 202.952C127.795 203.969 128.048 205.156 128.048 206.514C128.048 207.866 127.795 209.048 127.29 210.06C126.784 211.071 126.074 211.858 125.159 212.42C124.244 212.983 123.173 213.264 121.946 213.264ZM121.955 211.125C122.75 211.125 123.409 210.915 123.932 210.494C124.455 210.074 124.841 209.514 125.091 208.815C125.347 208.116 125.474 207.347 125.474 206.506C125.474 205.67 125.347 204.903 125.091 204.205C124.841 203.5 124.455 202.935 123.932 202.509C123.409 202.082 122.75 201.869 121.955 201.869C121.153 201.869 120.489 202.082 119.96 202.509C119.438 202.935 119.048 203.5 118.793 204.205C118.543 204.903 118.418 205.67 118.418 206.506C118.418 207.347 118.543 208.116 118.793 208.815C119.048 209.514 119.438 210.074 119.96 210.494C120.489 210.915 121.153 211.125 121.955 211.125ZM145.537 207.571V199.909H148.094V213H145.588V210.733H145.452C145.151 211.432 144.668 212.014 144.003 212.48C143.344 212.94 142.523 213.17 141.54 213.17C140.699 213.17 139.955 212.986 139.307 212.616C138.665 212.241 138.159 211.688 137.79 210.955C137.426 210.222 137.244 209.315 137.244 208.236V199.909H139.793V207.929C139.793 208.821 140.04 209.531 140.534 210.06C141.028 210.588 141.67 210.852 142.46 210.852C142.938 210.852 143.412 210.733 143.884 210.494C144.361 210.256 144.756 209.895 145.068 209.412C145.386 208.929 145.543 208.315 145.537 207.571ZM151.518 217.909V199.909H154.006V202.031H154.219C154.367 201.759 154.58 201.443 154.859 201.085C155.137 200.727 155.523 200.415 156.018 200.148C156.512 199.875 157.165 199.739 157.978 199.739C159.035 199.739 159.978 200.006 160.808 200.54C161.637 201.074 162.288 201.844 162.759 202.849C163.237 203.855 163.475 205.065 163.475 206.48C163.475 207.895 163.239 209.108 162.768 210.119C162.296 211.125 161.648 211.901 160.825 212.446C160.001 212.986 159.06 213.256 158.004 213.256C157.208 213.256 156.558 213.122 156.052 212.855C155.552 212.588 155.16 212.276 154.876 211.918C154.592 211.56 154.373 211.241 154.219 210.963H154.066V217.909H151.518ZM154.015 206.455C154.015 207.375 154.148 208.182 154.415 208.875C154.683 209.568 155.069 210.111 155.575 210.503C156.08 210.889 156.7 211.082 157.433 211.082C158.194 211.082 158.83 210.881 159.342 210.477C159.853 210.068 160.239 209.514 160.501 208.815C160.768 208.116 160.901 207.33 160.901 206.455C160.901 205.591 160.771 204.815 160.509 204.128C160.254 203.44 159.867 202.898 159.35 202.5C158.839 202.102 158.2 201.903 157.433 201.903C156.694 201.903 156.069 202.094 155.558 202.474C155.052 202.855 154.668 203.386 154.407 204.068C154.146 204.75 154.015 205.545 154.015 206.455ZM168.879 195.545V213H166.33V195.545H168.879ZM177.821 213.264C176.594 213.264 175.523 212.983 174.608 212.42C173.693 211.858 172.983 211.071 172.477 210.06C171.972 209.048 171.719 207.866 171.719 206.514C171.719 205.156 171.972 203.969 172.477 202.952C172.983 201.935 173.693 201.145 174.608 200.582C175.523 200.02 176.594 199.739 177.821 199.739C179.048 199.739 180.119 200.02 181.034 200.582C181.949 201.145 182.659 201.935 183.165 202.952C183.67 203.969 183.923 205.156 183.923 206.514C183.923 207.866 183.67 209.048 183.165 210.06C182.659 211.071 181.949 211.858 181.034 212.42C180.119 212.983 179.048 213.264 177.821 213.264ZM177.83 211.125C178.625 211.125 179.284 210.915 179.807 210.494C180.33 210.074 180.716 209.514 180.966 208.815C181.222 208.116 181.349 207.347 181.349 206.506C181.349 205.67 181.222 204.903 180.966 204.205C180.716 203.5 180.33 202.935 179.807 202.509C179.284 202.082 178.625 201.869 177.83 201.869C177.028 201.869 176.364 202.082 175.835 202.509C175.313 202.935 174.923 203.5 174.668 204.205C174.418 204.903 174.293 205.67 174.293 206.506C174.293 207.347 174.418 208.116 174.668 208.815C174.923 209.514 175.313 210.074 175.835 210.494C176.364 210.915 177.028 211.125 177.83 211.125ZM190.577 213.29C189.748 213.29 188.998 213.136 188.327 212.83C187.657 212.517 187.126 212.065 186.734 211.474C186.347 210.884 186.154 210.159 186.154 209.301C186.154 208.562 186.296 207.955 186.58 207.477C186.864 207 187.248 206.622 187.731 206.344C188.214 206.065 188.754 205.855 189.35 205.713C189.947 205.571 190.555 205.463 191.174 205.389C191.958 205.298 192.594 205.224 193.083 205.168C193.572 205.105 193.927 205.006 194.148 204.869C194.37 204.733 194.481 204.511 194.481 204.205V204.145C194.481 203.401 194.271 202.824 193.85 202.415C193.435 202.006 192.816 201.801 191.992 201.801C191.134 201.801 190.458 201.991 189.964 202.372C189.475 202.747 189.137 203.165 188.95 203.625L186.555 203.08C186.839 202.284 187.254 201.642 187.799 201.153C188.35 200.659 188.984 200.301 189.7 200.08C190.415 199.852 191.168 199.739 191.958 199.739C192.481 199.739 193.035 199.801 193.62 199.926C194.211 200.045 194.762 200.267 195.273 200.591C195.79 200.915 196.214 201.378 196.543 201.98C196.873 202.577 197.038 203.352 197.038 204.307V213H194.549V211.21H194.447C194.282 211.54 194.035 211.864 193.705 212.182C193.376 212.5 192.952 212.764 192.435 212.974C191.918 213.185 191.299 213.29 190.577 213.29ZM191.131 211.244C191.836 211.244 192.438 211.105 192.938 210.827C193.444 210.548 193.827 210.185 194.089 209.736C194.356 209.281 194.489 208.795 194.489 208.278V206.591C194.398 206.682 194.222 206.767 193.961 206.847C193.705 206.92 193.413 206.986 193.083 207.043C192.754 207.094 192.433 207.142 192.12 207.188C191.808 207.227 191.546 207.261 191.336 207.29C190.842 207.352 190.39 207.457 189.981 207.605C189.577 207.753 189.254 207.966 189.009 208.244C188.771 208.517 188.651 208.881 188.651 209.335C188.651 209.966 188.884 210.443 189.35 210.767C189.816 211.085 190.41 211.244 191.131 211.244ZM205.332 213.256C204.276 213.256 203.332 212.986 202.503 212.446C201.679 211.901 201.031 211.125 200.56 210.119C200.094 209.108 199.861 207.895 199.861 206.48C199.861 205.065 200.097 203.855 200.568 202.849C201.045 201.844 201.699 201.074 202.528 200.54C203.358 200.006 204.298 199.739 205.349 199.739C206.162 199.739 206.815 199.875 207.31 200.148C207.81 200.415 208.196 200.727 208.469 201.085C208.747 201.443 208.963 201.759 209.116 202.031H209.27V195.545H211.818V213H209.33V210.963H209.116C208.963 211.241 208.741 211.56 208.452 211.918C208.168 212.276 207.776 212.588 207.276 212.855C206.776 213.122 206.128 213.256 205.332 213.256ZM205.895 211.082C206.628 211.082 207.247 210.889 207.753 210.503C208.264 210.111 208.651 209.568 208.912 208.875C209.179 208.182 209.312 207.375 209.312 206.455C209.312 205.545 209.182 204.75 208.92 204.068C208.659 203.386 208.276 202.855 207.77 202.474C207.264 202.094 206.639 201.903 205.895 201.903C205.128 201.903 204.489 202.102 203.977 202.5C203.466 202.898 203.08 203.44 202.818 204.128C202.563 204.815 202.435 205.591 202.435 206.455C202.435 207.33 202.565 208.116 202.827 208.815C203.088 209.514 203.474 210.068 203.986 210.477C204.503 210.881 205.139 211.082 205.895 211.082Z" fill="#FBAF43"/>
<path fillRule="evenodd" clipRule="evenodd" d="M128 122C130.209 122 132 120.209 132 118V59.4796L140.963 69.9364C142.4 71.6138 144.926 71.808 146.603 70.3703C148.28 68.9326 148.475 66.4074 147.037 64.7301L131.037 46.0635C130.277 45.1769 129.167 44.6666 128 44.6666C126.832 44.6666 125.723 45.1769 124.963 46.0635L108.963 64.7301C107.525 66.4074 107.719 68.9326 109.397 70.3703C111.074 71.808 113.599 71.6138 115.037 69.9364L124 59.4796V118C124 120.209 125.791 122 128 122Z" fill="#FBAF43"/>
<path d="M149.333 86C145.588 86 143.716 86 142.371 86.8987C141.788 87.2879 141.288 87.788 140.899 88.3705C140 89.7156 140 91.5883 140 95.3333V118C140 124.627 134.628 130 128 130C121.373 130 116 124.627 116 118V95.3333C116 91.5883 116 89.7154 115.101 88.3701C114.712 87.7879 114.212 87.288 113.63 86.8989C112.285 86 110.412 86 106.667 86C91.5817 86 84.0392 86 79.3529 90.6863C74.6666 95.3728 74.6666 102.914 74.6666 117.999V123.332C74.6666 138.417 74.6666 145.959 79.3529 150.646C84.0392 155.332 91.5817 155.332 106.667 155.332H149.333C164.418 155.332 171.96 155.332 176.647 150.646C181.333 145.959 181.333 138.417 181.333 123.332V117.999C181.333 102.914 181.333 95.3728 176.647 90.6863C171.96 86 164.418 86 149.333 86Z" fill="#FBAF43"/>
</svg>
