<svg width="38" height="37" viewBox="0 0 38 37" fill="none" xmlns="http://www.w3.org/2000/svg">
<rect width="39" height="38" rx="5" fill="#379417" fill-opacity="0.1"/>
<path d="M18.9095 5.39688C16.4181 5.40183 13.9818 6.16549 11.8974 7.59482C9.81306 9.02415 8.17052 11.0575 7.16991 13.4471C6.1693 15.8368 5.8538 18.4796 6.26184 21.0537C6.66988 23.6278 7.78384 26.022 9.46806 27.9449C10.6709 29.3105 12.1309 30.4003 13.7558 31.1457C15.3808 31.8911 17.1356 32.276 18.9095 32.276C20.6835 32.276 22.4383 31.8911 24.0633 31.1457C25.6882 30.4003 27.1482 29.3105 28.351 27.9449C30.0353 26.022 31.1492 23.6278 31.5573 21.0537C31.9653 18.4796 31.6498 15.8368 30.6492 13.4471C29.6486 11.0575 28.006 9.02415 25.9216 7.59482C23.8373 6.16549 21.401 5.40183 18.9095 5.39688ZM18.9095 29.6131C16.2485 29.6089 13.6929 28.5237 11.7803 26.5861C12.3609 25.1056 13.3487 23.8393 14.6182 22.9481C15.8876 22.0569 17.3813 21.5811 18.9095 21.5811C20.4378 21.5811 21.9315 22.0569 23.2009 22.9481C24.4704 23.8393 25.4582 25.1056 26.0388 26.5861C24.1262 28.5237 21.5706 29.6089 18.9095 29.6131ZM16.3404 16.1596C16.3404 15.6275 16.4911 15.1073 16.7734 14.6648C17.0557 14.2223 17.4569 13.8774 17.9264 13.6738C18.3958 13.4701 18.9124 13.4168 19.4108 13.5206C19.9091 13.6245 20.3669 13.8807 20.7262 14.257C21.0855 14.6333 21.3302 15.1128 21.4293 15.6347C21.5284 16.1567 21.4776 16.6977 21.2831 17.1893C21.0886 17.681 20.7594 18.1012 20.3369 18.3969C19.9144 18.6925 19.4177 18.8503 18.9095 18.8503C18.2282 18.8503 17.5747 18.5668 17.0929 18.0622C16.6111 17.5576 16.3404 16.8733 16.3404 16.1596ZM27.7858 24.2317C26.6381 22.1757 24.8717 20.5764 22.7632 19.6844C23.4173 18.9077 23.8434 17.9498 23.9906 16.9257C24.1377 15.9016 23.9996 14.8548 23.5927 13.9109C23.1859 12.967 22.5276 12.1661 21.6969 11.6043C20.8662 11.0424 19.8984 10.7436 18.9095 10.7436C17.9207 10.7436 16.9529 11.0424 16.1222 11.6043C15.2915 12.1661 14.6332 12.967 14.2264 13.9109C13.8195 14.8548 13.6814 15.9016 13.8285 16.9257C13.9757 17.9498 14.4018 18.9077 15.0559 19.6844C12.9474 20.5764 11.181 22.1757 10.0333 24.2317C9.11858 22.5999 8.6353 20.7425 8.63309 18.8503C8.63309 15.9959 9.71579 13.2583 11.643 11.2399C13.5702 9.2215 16.1841 8.08757 18.9095 8.08757C21.635 8.08757 24.2489 9.2215 26.1761 11.2399C28.1033 13.2583 29.186 15.9959 29.186 18.8503C29.1838 20.7425 28.7005 22.5999 27.7858 24.2317Z" fill="#379417"/>
</svg>
